<?xml version="1.0" encoding="utf-8"?>
<!-- Generator: Adobe Illustrator 18.0.0, SVG Export Plug-In . SVG Version: 6.00 Build 0)  -->
<!DOCTYPE svg PUBLIC "-//W3C//DTD SVG 1.1//EN" "http://www.w3.org/Graphics/SVG/1.1/DTD/svg11.dtd">
<svg version="1.1" id="Слой_1" xmlns="http://www.w3.org/2000/svg" xmlns:xlink="http://www.w3.org/1999/xlink" x="0px" y="0px"
	 viewBox="0 0 920 190" enable-background="new 0 0 920 190" xml:space="preserve">
<g>
	<path fill="#FFFFFF" d="M101.8,124.4c-5.6,6.8-13.8,12.3-24.8,16.5c-11.7,4.5-24.3,6.8-38,6.8c-11.6,0-20.7-2.8-27.5-8.5l-9.8,17.7
		c-0.2,0.4-0.6,0.5-1,0.2c-0.5-0.2-0.6-0.5-0.4-1c1.9-3.5,3.6-6.7,5.3-9.7s3.2-5.8,4.6-8.4c-3.2-3-4.7-6.3-4.7-9.8
		c0-7.3,6.6-14.1,19.9-20.3C36.8,83.8,42,66.4,40.8,56c-7.5,1.9-13.2,2.8-17.1,2.9c-4.5,0.2-8-0.5-10.3-2.1
		c-2.1-1.4-3.2-3.2-3.2-5.5c0-0.9,0.2-1.7,0.5-2.4c1-2.9,2.9-5.3,5.9-7.1s6.3-2.7,9.9-2.7c8,0,13.4,3.9,16,11.7L53.1,49
		c6.9-1.2,12.1-2.1,15.7-2.6c3-0.4,5.8-0.7,8.4-1c2.6-0.2,5-0.4,7.3-0.6c7.2-0.4,12.8,0.5,16.8,2.7c3.8,1.9,5.7,4.8,5.7,8.5
		c0,4.9-3.2,10.1-9.6,15.6C90,77.9,80.8,82.9,69.5,86.7c0.2,0.1,0.7,0.1,1.3,0.1c1-0.1,1.9-0.1,2.9-0.2c1,0,1.9-0.1,2.9-0.1
		c8.8,0,16.4,1.9,22.6,5.7c6.4,4,9.6,9.2,9.6,15.6C108.9,113.2,106.5,118.7,101.8,124.4z M22.7,113.6c-7.3,4.8-10.9,9.9-10.9,15.4
		c0,1.5,0.3,3,1,4.5c1.9-3.6,3.6-7.1,5.3-10.4C19.8,119.7,21.4,116.6,22.7,113.6z M28.8,106.5c1.7-0.6,3.6-1.1,5.8-1.5
		C39,91.3,47.2,75.9,59.3,59c1.4-1.9,3.4-2.8,6.1-2.8c2,0,3,0.5,3,1.5c0,0.4-0.2,0.9-0.7,1.3c-2.6,2.6-6.8,8.4-12.5,17.4
		C48.4,87,43.3,96.3,40,104.2c2-0.3,4-0.5,6.1-0.7c2-0.1,4.1-0.2,6.2-0.2c14.3,0,22.9,2.5,26,7.5c0.3,0.7,0.1,1.1-0.6,1.2
		c-0.7,0-1.4-0.2-1.9-0.5c-4.9-3.2-13.2-4.9-24.7-4.9c-2.2,0-4.3,0.1-6.4,0.2c-2.1,0.1-4.1,0.3-6,0.7c-1.6,4.4-2.4,7.9-2.4,10.4
		c-0.1,3,0.5,5.5,1.7,7.7c1.3,2.3,3.1,3.4,5.5,3.4c0.6,0,1,0,1.3-0.1c1.1-0.2,1.6,0.1,1.6,1c0,0.3-0.3,0.6-1,0.7
		c-4,0.2-7.1-0.7-9.4-2.9c-2.3-2.2-3.5-5.2-3.6-9.1c-0.1-2.8,0.4-6.1,1.3-10c-1.2,0.3-2.4,0.7-3.6,1.2c-1.2,0.4-2.4,1-3.6,1.6
		c-1.6,3.1-3.5,6.6-5.6,10.6s-4.5,8.4-7.2,13.2c4,6.6,11.7,9.8,23.2,9.8c13.1,0,25.1-2.4,36.1-7c9.8-4.2,17.4-9.6,22.8-16.2
		c4.4-5.2,6.6-10,6.6-14.6c0-5.4-3.1-9.8-9.4-13.1c-5.8-3.1-12.7-4.6-20.9-4.6c-4.9,0-9.6,0.6-14,1.8c-1,0.2-1.5-0.1-1.5-1
		c0-0.5,0.2-1.1,0.5-1.7s0.7-1.3,1.3-1.8c0.5-0.6,1.2-1.1,1.9-1.5s1.5-0.7,2.3-0.8c2-0.2,3.5-0.2,4.4,0.2c8.9-2.8,17-7.9,24.2-15.2
		c5.8-5.7,8.6-10.5,8.6-14.3c0-5-5.1-7.5-15.3-7.5c-2.8,0.1-6,0.3-9.4,0.7S68,49.5,64,50.3c-0.2,0.1-1.9,0.5-5.3,1.3
		c-3.4,0.8-8.4,2-14.9,3.6c0.5,3.7,0.3,8.1-0.6,13.2C41.2,78.5,36.4,91.1,28.8,106.5z M39.9,51.2C37.5,44,33,40.4,26.4,40.4
		c-5.5,0-9.4,2.4-11.5,7.3c-0.3,0.6-0.5,1.1-0.5,1.7c0,2.9,3.1,4.2,9.4,3.8c1.9-0.1,4.1-0.3,6.7-0.6C33.1,52.3,36.2,51.8,39.9,51.2z
		"/>
</g>
<g>
	<path fill="#FFFFFF" d="M154.7,116c-2.9,3.6-7.5,7-13.9,10.2c-7,3.6-13,5.5-18.2,5.5c-7.5,0-11.3-4.1-11.3-12.4c0-3,1-6.6,3-10.7
		c2-4.4,4.6-8,7.7-10.9c3.5-3.3,6.8-5,9.8-5c4,0,6.1,2,6.1,6c0,2.4-1.1,5-3.2,7.8c-3.7,4.6-9.2,7.8-16.3,9.6
		c-0.3,1.4-0.5,2.8-0.5,4.4c0,5.5,2.6,8.3,7.7,8.3c4,0,9.1-1.7,15.1-5c2.8-1.5,5.1-3.1,7.2-4.6c2-1.5,3.7-3,5.1-4.6
		c1.5-1.6,2.3-1.7,2.3-0.2C155.3,114.8,155.1,115.4,154.7,116z M132.3,104.6c1.5-2.6,2.3-4.8,2.3-6.7c0-1.5-0.5-2.2-1.5-2.2
		c-1.7,0-4.1,2-7,6c-2.9,4.1-5.2,8.1-6.9,12.1C125.6,111.8,130,108.7,132.3,104.6z"/>
</g>
<g>
	<path fill="#FFFFFF" d="M173.8,132.6c6.9-1.7,12.8-5.3,17.7-10.9c0.3-0.5,0.8-0.7,1.3-0.7s0.7,0.3,0.7,1c0,0.6-0.3,1.3-0.9,1.8
		c-6.8,6.6-13.2,10.4-19.3,11.4c-4.2,0.7-8.1,0.8-11.8,0.2c-1.2,2.2-3.1,3.3-5.6,3.3c-1.9,0-3.6-0.6-5.1-1.8s-2.5-2.6-2.9-4.3
		c-0.9-3.2-1-5.2-0.4-5.8c0.1-1.1,0.6-1.6,1.5-1.6c0.2,0,0.4,0.1,0.6,0.2c2.3,2.8,5.3,5,9,6.4c0.1-1-0.1-2.2-0.5-3.8
		c-0.3-1.1-0.7-2-1.2-2.9c-0.4-0.9-1-1.7-1.5-2.6c-3.1-4.2-4.4-8.5-4-12.8c0.7-8.6,6.5-14.9,17.3-18.8c3.6-1.3,7-1.7,10.2-1.3
		c3.6,0.5,5.5,2.5,5.5,6c0,2.6-0.9,5.1-2.6,7.5c-0.7,1-1.4,1.6-1.9,1.8c-0.6,0.1-0.9-0.2-0.9-0.7c0-0.3,0.2-0.9,0.6-1.7
		c0.9-1.6,1.3-3,1.3-4.1c0-2-1.3-3-4-3c-0.3,0-0.7,0-1,0.1c-0.4,0-0.7,0.1-1.2,0.2c-8.8,1.6-14.7,6.7-17.7,15.3
		c-0.4,1.5-0.6,2.7-0.6,3.8c0,2.3,1,5,2.9,8.3c2,3.3,3.1,6,3.2,7.9c0,0.4,0,0.8,0,1.1s0,0.6-0.1,1
		C166.2,133.7,169.9,133.6,173.8,132.6z M157.6,134.5c-3.2-1.1-5.9-2.7-8.1-5c0,1.7,0.6,3.1,1.8,4.2c1.2,1.1,2.4,1.6,3.8,1.6
		C156.1,135.3,157,135,157.6,134.5z"/>
</g>
<g>
	<path fill="#FFFFFF" d="M187.6,100.9c0.6,0,1.2,0,1.8,0s1.2,0,1.9-0.1c0.4-0.1,0.9-0.1,1.5-0.1s1.2,0,1.9,0
		c0.6-1.1,1.4-2.6,2.4-4.5c1.1-1.9,2.4-4.4,4-7.3c0.9-1.6,1.9-3.4,3.2-5.2c1.2-1.9,2.6-3.9,4.1-6.2c1.6-1.6,3.8-2.4,6.6-2.4
		c2.3,0,3.5,0.6,3.5,1.8c0,0.2-0.1,0.5-0.4,0.9c-1.7,2.4-3.8,5.4-6.4,9.2c-2.6,3.8-5.6,8.4-9.1,13.8h19c1.2,0.4,1.8,0.9,1.8,1.6
		c0,1.2-1.5,2-4.4,2.3c-0.5,0.1-2.3,0.1-5.3,0.1c-3.1,0-7.5,0-13.4,0.1c-4,7.5-6,13.5-6,18.2c0,5.3,2.3,7.9,6.8,7.9
		c2.3,0,4.7-0.7,7.3-2.2c1.8-1.1,3.6-2.4,5.5-3.9c1.9-1.6,3.9-3.5,6-5.8c0.8-0.8,1.5-1.2,1.9-1.1c0.4,0,0.6,0.3,0.6,0.9
		c0,0.5-0.2,1-0.6,1.6c-9.2,9.6-17,14.3-23.6,14.1c-5.2-0.2-8.3-2.8-9.4-8c-0.2-0.8-0.3-1.6-0.4-2.4c-0.1-0.8-0.1-1.6-0.1-2.4
		c0-4.9,1.4-10.5,4.1-16.8c-1.8,0.1-3.1,0.1-3.8,0.1c-0.8,0-1,0-0.7,0.1c-1.9-0.2-2.9-1.1-3-2.4
		C184.8,101.5,185.7,100.9,187.6,100.9z"/>
</g>
<g>
	<path fill="#FFFFFF" d="M369.1,110.2c-1.4,3.6-4.3,6.4-8.7,8.4c-4.7,2.1-9.1,3.1-13.1,3c-1.8,3.1-3.6,5.9-5.4,8.6
		c-1.8,2.6-3.7,5-5.8,7.1c-4.5,4.9-8.4,7.6-11.8,8.1c-0.6,0.1-1.1,0.1-1.6,0.2c-0.5,0-0.9,0.1-1.3,0.1c-4.9,0-7.3-2.4-7.3-7.2
		c0-2.4,0.6-3.6,1.7-3.6c0.6,0,0.8,0.6,0.7,1.8c-0.5,2.9,0.6,4.4,3.3,4.4c0.9,0,1.7-0.2,2.4-0.5c5.8-2,11.5-8.9,17.3-20.5
		c-2-0.7-4.1-1.8-6.1-3.2c-2.3,4.8-5.4,10.2-9.4,16.3c-0.2,0.3-0.5,0.4-0.9,0.1c-0.4-0.2-0.5-0.5-0.2-0.9c1.4-2.2,2.8-4.7,4.3-7.4
		c1.5-2.8,3-5.8,4.6-9.2c-5.7-4.2-10.4-10.4-14.3-18.6c-3.5-7.4-5.5-14.7-6.2-22.1c-0.2-2.4-0.4-4.8-0.4-7c0-11.4,2.4-20.6,7.3-27.6
		c4.2-6.2,9.3-9.2,15.2-9.2c4.5,0,8.3,2,11.2,6c3.2,4.2,4.9,10.2,4.9,17.9c-0.2,18.4-5.2,38.4-15.2,60.1c0.9,0.7,1.8,1.4,2.9,1.9
		c1,0.6,2,1.1,3.1,1.5c2.8-5.7,5.3-12.2,7.7-19.6c5.2-15.8,7.8-29.4,7.8-40.8c0-13.9-3.8-24.4-11.3-31.6c-3.6-3.5-7.5-5.2-11.7-5.2
		c-6.4,0-12.2,3.7-17.5,11.2c-5,7.2-7.5,14.7-7.5,22.6c0,3.3,0.5,6.2,1.6,8.6c0.4,1.2,0.6,2.1,0.6,2.7c0,1.1-0.4,1.6-1.1,1.6
		c-1,0-1.7-0.8-2.3-2.3c-1.7-4-2.6-8.2-2.6-12.8c0-8.8,2.8-16.7,8.4-23.7c5.7-7,12.3-10.6,19.8-10.6c4.9,0,9.8,1.8,14.5,5.3
		C356.9,32,362,45.3,362,63.8c0,2.8-0.1,5.6-0.4,8.4c-0.2,2.9-0.6,5.9-1.2,8.9c2.1-5.1,4-9.5,5.8-13.2c1.7-3.7,3.4-6.7,4.9-9.1
		c9.6-15.7,17.5-23.6,23.6-23.6c3.4,0,6,2.5,7.8,7.4c1.7,4.5,2.6,10.5,2.6,18c0,1.6,0,3.2-0.1,4.9c-0.1,1.6-0.2,3.3-0.4,5.1
		c-0.3,2.8-0.8,6-1.4,9.8s-1.4,8.1-2.5,13.1c-1.1,5.2-1.9,9.2-2.4,12c-0.6,2.8-0.9,4.6-1,5.2c5.9-12.6,14.2-26.4,24.9-41.2
		c13.7-19,25.8-30.9,36.2-35.7c5.2-2.3,9.1-3.5,11.7-3.5c3,0,4.5,1.5,4.5,4.4c0,6.3-5.8,17.2-17.4,32.6
		c-8.9,11.7-16.4,23.9-22.6,36.8c-3.9,7.8-6.8,14.8-8.6,21.1c-1.9,6.3-2.8,12-2.9,17.1c-0.1,5.4,1.3,8.1,4,8.1
		c2.6,0,5.5-1.7,8.6-5.1c0.6-0.7,1.2-1.1,1.8-1.1c0.5,0,0.7,0.2,0.7,0.6c0,0.6-0.6,1.5-1.7,2.7c-4.8,4.6-9.6,6.9-14.3,6.9
		c-4.9,0-7.3-3.6-7.3-10.9c0-1.2,0.1-2.5,0.2-3.8s0.3-2.7,0.7-4.1c1.5-8.3,5.8-19.3,12.8-32.9c2.1-4.3,4.8-9.3,8-15.1
		c3.2-5.8,7-12.3,11.4-19.7c4-6.7,7.1-12.1,9.5-16.3c2.3-4.1,3.9-7,4.7-8.6c1-2.3,1.5-3.9,1.5-5s-0.4-1.6-1.2-1.6
		c-2.8,0-8.4,4.2-17,12.5c-8.7,8.7-17.3,18.6-25.5,29.8c-9.6,12.8-16.3,24.4-20.2,34.7c-1.9,4.9-4,7.4-6.1,7.4
		c-1.3,0-1.9-1.1-1.9-3.2c0-0.4,0-0.8,0.1-1.2c0-0.4,0.1-0.8,0.2-1.2c3.7-19.1,5.7-34,6-44.6c0.3-20.2-1.9-30.3-6.7-30.3
		c-4.7,0-11.5,9.1-20.5,27.3c-3.2,6.6-6.3,13.3-9.1,20c-2.8,6.7-5.5,13.6-8,20.7c-1.4,4-3.1,7.9-5.2,11.7c3.6,0.1,7.4-0.8,11.5-2.7
		c4.4-2.1,7.1-4.7,8.1-7.8c0.2-0.4,0.4-0.5,0.9-0.4C369.1,109.5,369.3,109.8,369.1,110.2z M332.7,114c8.9-19.9,13.4-39.3,13.6-58.2
		c0-7.3-1.4-13-4.1-17.3c-2.6-3.8-5.8-5.7-9.6-5.7c-4.9,0-9,2.8-12.5,8.4c-4,6.4-6,14.9-6,25.4c0,2.5,0.1,5,0.4,7.5
		c0.6,7,2.4,14.1,5.5,21.3C323.3,103.4,327.6,109.6,332.7,114z"/>
</g>
<g>
	<path fill="#FFFFFF" d="M513.2,123.5c-9.5,10-17.5,14.7-24.2,14c-2.2-0.2-4.2-1.6-6.1-4c-1.9-2.8-3-6.2-3.4-10.3
		c-1.5,2.1-3.1,4-4.7,5.8c-1.6,1.7-3.3,3.3-5,4.8c-3.2,2.6-5.9,3.9-8,3.9c-3,0-4.5-1.9-4.5-5.7c0-3.2,1.1-6.6,3.4-10.1
		c5.3-8,11.2-13.6,17.7-16.6c2.8-1.3,5.5-1.9,7.9-1.9c0.6,0,1.4,0.1,2.1,0.3c0.8,0.2,1.5,0.5,2.2,0.9s1.3,0.8,1.7,1.3
		c0.4,0.5,0.7,1.1,0.7,1.7c0,0.2-0.1,0.5-0.4,0.7s-0.6,0.4-1,0.5s-0.7,0.3-1,0.4c-0.3,0.2-0.5,0.3-0.5,0.4c-3,5.4-4.5,10.6-4.5,15.6
		c0,6.2,2.4,9.2,7.2,9.2c5,0,11.3-4,18.8-12c0.6-0.7,1.1-1.1,1.7-1.1c0.4,0,0.6,0.3,0.6,0.9C513.9,122.5,513.6,123,513.2,123.5z
		 M482.9,107.5c-6.7-0.2-12.5,4.5-17.4,14.1c-1.4,2.6-2.1,4.9-2.1,6.9c0,2.2,0.8,3.3,2.3,3.3s3.4-1,5.7-2.9c4.2-3.6,7-7.1,8.3-10.7
		C480.3,114.1,481.4,110.6,482.9,107.5z"/>
</g>
<g>
	<path fill="#FFFFFF" d="M507.9,103.9c0.6,0,1.2,0,1.8,0s1.2,0,1.9-0.1c0.4-0.1,0.9-0.1,1.5-0.1s1.2,0,1.9,0
		c0.6-1.1,1.4-2.6,2.4-4.5c1.1-1.9,2.4-4.4,4-7.3c0.9-1.6,1.9-3.4,3.2-5.2c1.2-1.9,2.6-3.9,4.1-6.2c1.6-1.6,3.8-2.4,6.6-2.4
		c2.3,0,3.5,0.6,3.5,1.8c0,0.2-0.1,0.5-0.4,0.9c-1.7,2.4-3.8,5.4-6.4,9.2c-2.6,3.8-5.6,8.4-9.1,13.8h19c1.2,0.4,1.8,0.9,1.8,1.6
		c0,1.2-1.5,2-4.4,2.3c-0.5,0.1-2.3,0.1-5.3,0.1c-3.1,0-7.5,0-13.4,0.1c-4,7.5-6,13.5-6,18.2c0,5.3,2.3,7.9,6.8,7.9
		c2.3,0,4.7-0.7,7.3-2.2c1.8-1.1,3.6-2.4,5.5-3.9c1.9-1.6,3.9-3.5,6-5.8c0.8-0.8,1.5-1.2,1.9-1.1c0.4,0,0.6,0.3,0.6,0.9
		c0,0.5-0.2,1-0.6,1.6c-9.2,9.6-17,14.3-23.6,14.1c-5.2-0.2-8.3-2.8-9.4-8c-0.2-0.8-0.3-1.6-0.4-2.4c-0.1-0.8-0.1-1.6-0.1-2.4
		c0-4.9,1.4-10.5,4.1-16.8c-1.8,0.1-3.1,0.1-3.8,0.1c-0.8,0-1,0-0.7,0.1c-1.9-0.2-2.9-1.1-3-2.4
		C505.1,104.5,505.9,103.9,507.9,103.9z"/>
</g>
<g>
	<path fill="#FFFFFF" d="M581.8,116.8c-9.9,10.4-19.5,15.6-28.9,15.6c-7.1,0-10.7-3.8-10.7-11.5c0-5,2.6-10.6,7.7-16.6
		c5.5-6.5,10.8-9.7,15.8-9.7c4.1,0,6.2,1.9,6.2,5.6c0,1.3-0.5,3-1.5,5c-0.4,0.9-0.8,1.6-1.2,2.2s-0.8,1.1-1.1,1.5
		c-0.4,0.4-0.7,0.6-1,0.6c-0.8,0-0.9-0.6-0.2-1.8c0.9-1.6,1.3-3,1.3-4c0-1.5-0.9-2.3-2.8-2.3c-2.4,0-4.9,1-7.4,2.9
		c-1.6,1.2-3.1,2.6-4.4,4.1c-1.3,1.5-2.4,3.1-3.3,4.7c-0.9,1.6-1.6,3.2-2.1,4.9c-0.5,1.6-0.8,3.2-0.8,4.6c0,4.7,2.4,7,7.3,7
		c2.6,0,5.7-0.7,9.4-2.2c4.9-2,10.2-6,15.8-11.8c0.8-0.8,1.5-1.2,1.9-1.2c0.4,0.2,0.6,0.4,0.6,0.9
		C582.4,115.7,582.2,116.2,581.8,116.8z"/>
</g>
<g>
	<path fill="#FFFFFF" d="M626.7,120.1c-7.8,8.1-14.2,12.2-19.1,12.2c-2.1,0-3.6-1.7-4.7-5.1c-0.4-1.3-0.7-2.6-1-4
		c-0.3-1.3-0.7-2.6-1-4c-0.8-2-1.9-3-3.4-3c-1.3,0-2.8,0.7-4.5,2.1c-2.1,1.6-4.6,4.3-7.4,7.9c-0.6,0.8-1.2,1.6-1.9,2.5
		s-1.3,1.7-1.9,2.5c-1.3,0.9-2.4,1.3-3.3,1.3c-1.7,0-2.5-1.4-2.5-4.1c0-1,0.2-2.2,0.5-3.5c1-3.2,2.4-7.1,4.2-11.7s4.1-9.9,6.8-15.9
		c6.5-14.7,12-25.4,16.5-32.1c3.7-5.4,7.6-8.1,11.9-8.1c3.2,0,4.7,1.9,4.7,5.6c0,1.6-0.3,3.4-1,5.5c-3.4,10.6-13.2,22.8-29.4,36.6
		c-3.4,6.2-6.2,13.2-8.1,21l2.1-2.1c0.8-0.8,1.9-1.9,3.2-3.2c1.4-1.3,3-2.9,4.8-4.6c4.5-4,8.3-6,11.2-6c1.7,0,2.8,1.5,3.4,4.6
		c0.1,1.5,0.3,2.9,0.4,4.3c0.1,1.4,0.3,2.8,0.4,4.3c0.5,3.1,1.7,4.6,3.5,4.6c1.9,0,4.4-1.1,7.6-3.4c2.2-1.6,4.3-3.4,6.2-5.4
		c0.7-0.7,1.2-1.1,1.8-1.1c0.4,0,0.7,0.2,0.7,0.7C627.4,119.2,627.1,119.7,626.7,120.1z M615.9,68c0.9-2.1,1.3-3.8,1.3-5.3
		c0-1.8-0.6-2.8-1.9-2.8c-2,0-4.3,2.2-6.8,6.5c-3.2,5.6-6.3,11.4-9.1,17.2s-5.5,11.8-8,17.9c2.3-2.3,4.7-4.8,7-7.4s4.6-5.4,6.8-8.3
		c2.6-3.4,4.7-6.6,6.5-9.6C613.6,73.3,615,70.6,615.9,68z"/>
</g>
<g>
	<path fill="#FFFFFF" d="M695.5,113.5c-8.9,9.7-16.4,14.6-22.6,14.6c-6.6,0-9.6-6.2-9-18.6c-0.6,0.6-1.3,1.4-2.1,2.4
		c-0.9,1-1.9,2.3-3.2,3.9l-7.3,10.9c-1.5,1.8-2.9,2.4-4.1,1.9c-1.3-0.3-1.8-1.1-1.5-2.4l0.4-3.9c0.2-1.3,0.3-2.5,0.4-3.6
		c0.1-1.1,0.2-2.2,0.2-3.2c0.3-6.6-0.4-10-2.3-10c-1.5,0-3.9,1.7-7.2,5.1c-2.2,2.2-4.7,5.7-7.4,10.6c-2.4,4.3-3.9,6.6-4.4,6.8
		s-1,0.4-1.5,0.4c-1.1,0-1.7-0.8-1.7-2.3c0-0.5,0-0.9,0.1-1.1c0.6-1.2,1.3-2.9,2.3-5.2c1-2.2,2.1-5,3.5-8.2
		c3.4-7.9,5.1-12.6,5.1-14.3c0.2-0.5,1.5-1.3,3.9-2.4c2.6-1.2,3.9-0.9,3.9,1l-3.9,11.9c0.6-0.6,1.4-1.4,2.4-2.2
		c0.9-0.9,2-1.8,3.1-2.7c1.3-0.8,2.7-1.2,4.1-1.2c3.8,0,6,2.4,6.4,7c0,0.1,0,1.2-0.1,3.2c-0.1,2.1-0.2,5.2-0.4,9.3
		c2.5-3.9,7.5-10.8,14.9-20.8c1.5-1.9,3.1-2.9,4.9-2.9c0.9,0,1.3,0.5,1.3,1.5c0,0.2,0,0.5-0.1,0.7c0,0.2-0.1,0.5-0.2,0.9
		c-2,6.8-3,12.2-3,16.2c0,5.2,1.8,7.8,5.3,7.8c2.9,0,6.2-1.5,9.8-4.4c0.6-0.6,1.6-1.5,3-2.8c1.3-1.3,3-3,4.9-5
		c0.6-0.6,1.1-0.9,1.5-0.9c0.3,0,0.6,0.2,0.7,0.7C696,112.7,695.9,113.1,695.5,113.5z"/>
</g>
<g>
	<path fill="#FFFFFF" d="M743.9,116c-9.5,10-17.5,14.7-24.2,14c-2.2-0.2-4.2-1.6-6.1-4c-1.9-2.8-3-6.2-3.4-10.3
		c-1.5,2.1-3.1,4-4.7,5.8c-1.6,1.7-3.3,3.3-5,4.8c-3.2,2.6-5.9,3.9-8,3.9c-3,0-4.5-1.9-4.5-5.7c0-3.2,1.1-6.6,3.4-10.1
		c5.3-8,11.2-13.6,17.7-16.6c2.8-1.3,5.5-1.9,7.9-1.9c0.6,0,1.4,0.1,2.1,0.3c0.8,0.2,1.5,0.5,2.2,0.9s1.3,0.8,1.7,1.3
		s0.7,1.1,0.7,1.7c0,0.2-0.1,0.5-0.4,0.7c-0.3,0.2-0.6,0.4-1,0.5s-0.7,0.3-1,0.4c-0.3,0.2-0.5,0.3-0.5,0.4c-3,5.4-4.5,10.6-4.5,15.6
		c0,6.2,2.4,9.2,7.2,9.2c5,0,11.3-4,18.8-12c0.6-0.7,1.1-1.1,1.7-1.1c0.4,0,0.6,0.3,0.6,0.9C744.6,115,744.4,115.5,743.9,116z
		 M713.7,100c-6.7-0.2-12.5,4.5-17.4,14.1c-1.4,2.6-2.1,4.9-2.1,6.9c0,2.2,0.8,3.3,2.3,3.3s3.4-1,5.7-2.9c4.2-3.6,7-7.1,8.3-10.7
		C711.1,106.6,712.1,103.1,713.7,100z"/>
</g>
<g>
	<path fill="#FFFFFF" d="M754.6,104.5c0.1,0.9,0.2,1.8,0.4,2.7c0.2,0.9,0.4,1.8,0.6,2.8c1.4-1.9,2.8-3.7,4.2-5.5s2.9-3.5,4.4-5.1
		c3.9-4,7.6-6.1,11.1-6.1c1.8,0,3.2,0.6,4.4,1.7c1.1,1.1,1.7,2.5,1.7,4.1c0,1-0.2,2-0.7,3c-0.5,1.1-1.1,1.6-1.8,1.6
		c-0.8,0-1.3-0.7-1.5-2.1c-0.4-2.3-1.8-3.5-4.1-3.5c-3.3,0-7.1,2.4-11.3,7.3c-1.1,1.2-2,2.4-3,3.5c-0.9,1.1-1.8,2.3-2.6,3.4
		c1.6,5.4,4.1,10.1,7.5,14c3.8,4.3,7.9,6.4,12.4,6.4c2.3,0,4.7-0.6,7-1.8c3.5-1.7,7.2-4.7,11.1-8.9c0.8-0.8,1.5-1.2,1.9-1.2
		c0.4,0.2,0.6,0.4,0.6,0.9s-0.2,1-0.6,1.6c-3.3,3.4-7.4,6.5-12.3,9.2c-5.5,3.1-10.1,4.6-13.7,4.6s-7.2-1.9-10.7-5.6
		c-3.2-3.3-5.8-7.4-7.9-12.1c-1.3,2.1-2.7,4.8-4.1,8c-1.4,3.2-2.9,6.9-4.6,11.2c-1.1,0.6-2.1,1-3,1c-2.4,0-3.6-1.7-3.6-5.2
		c0-1.1,0.2-1.9,0.5-2.7c1.2-3.9,2.9-8.5,4.9-13.8c2.1-5.3,4.5-11.4,7.3-18.2c7.4-17.5,13.5-29.8,18.3-36.8c4-6,8.4-9,13.1-9
		c3.5,0,5.2,2.1,5.2,6.2c0,1.8-0.4,3.8-1.1,6.1C781.1,77.1,771.1,89.9,754.6,104.5z M750.7,117.2c-0.6-1.7-1.1-3.3-1.5-4.7
		c-3.8,8.2-6,14.9-6.6,20C745.2,126.9,747.8,121.8,750.7,117.2z M780.7,65.7c1-2.3,1.5-4.2,1.5-5.8c0-2-0.7-3-2.1-3
		c-2.2,0-4.7,2.4-7.5,7.2c-3.6,6.2-6.9,12.6-10,19s-6.1,13-8.8,19.8c2.6-2.6,5.2-5.3,7.7-8.2c2.6-2.9,5-5.9,7.5-9.2
		c2.8-3.8,5.2-7.3,7.2-10.6C778.1,71.6,779.6,68.5,780.7,65.7z"/>
</g>
<g>
	<path fill="#FFFFFF" d="M827.7,115.8c-9.2,9.7-17,14.5-23.6,14.2c-7.5-0.2-10.8-5.3-10.1-15.6c0.4-4.9,2.8-10.5,7.2-16.9
		c0.9-1.4,2.6-2.1,5.2-2.1c1.9,0,2.9,0.5,2.9,1.6c0,0.2-0.1,0.5-0.2,1c-1.4,2.5-2.5,4.5-3.3,5.8c-0.9,1.4-1.4,2.2-1.5,2.6
		c-0.9,1.7-1.6,3.2-2.1,4.6s-0.9,2.6-1,3.8c-0.2,1.5-0.4,2.8-0.4,4.1c0,5.3,1.9,8,5.7,8c5.2,0,11.6-4.1,19.3-12.4
		c0.8-0.8,1.5-1.2,1.9-1.2c0.4,0.2,0.6,0.4,0.6,0.9C828.3,114.7,828.1,115.2,827.7,115.8z M822.6,75.3c0,4.1-1.8,6.1-5.3,6.1
		c-1.2,0-2.3-0.5-3.2-1.5s-1.4-2-1.4-3.2c0-1.5,0.7-2.9,2.1-4c1.3-0.9,2.5-1.3,3.5-1.3C821.1,71.4,822.6,72.7,822.6,75.3z"/>
</g>
<g>
	<path fill="#FFFFFF" d="M824.4,129c-0.3,0.8-0.9,1.2-1.7,1.2s-1.6-0.4-2.2-1.2c-0.7-0.8-1-1.4-0.8-2c0.6-1.2,1.3-2.9,2.3-5.2
		c1-2.2,2.1-5,3.5-8.2c3.4-7.9,5.1-12.6,5.1-14.3c0.2-0.5,1.5-1.3,3.9-2.4c2.6-1.2,3.9-0.9,3.9,1c-1.7,5.3-5.3,13.5-10.7,24.7
		c3-3.2,6.2-6.7,9.7-10.4c3.4-3.7,7.1-7.6,11-11.8c1.8-2,3.2-3,4.3-3c0.6,0,0.9,0.4,0.9,1.2c0,0.5-0.1,1.1-0.4,1.9
		c-2.8,9.2-4.1,15.7-4.1,19.4c0,4.4,1.5,6.6,4.5,6.6c2.9,0,6.2-1.5,9.8-4.4c0.6-0.6,1.6-1.5,3-2.8c1.3-1.3,3-3,4.9-5
		c0.6-0.6,1.1-0.9,1.5-0.9c0.3,0,0.6,0.2,0.7,0.7c0.2,0.5,0,0.9-0.4,1.3c-8.3,9.1-15.6,13.6-21.9,13.6c-5.7,0-8.5-4.4-8.5-13.2
		c0-1.9,0.1-4.1,0.4-6.4c-1.1,1-2.3,2.2-3.8,3.6c-1.5,1.5-3.3,3.2-5.4,5.1c-1.1,1-2,1.9-3,2.9c-0.9,1-1.8,2-2.6,3
		c-0.6,0.8-1.3,1.6-1.9,2.4C825.7,127.4,825,128.2,824.4,129z"/>
</g>
<g>
	<path fill="#FFFFFF" d="M916.8,96.8c-0.4,0.4-0.7,0.6-1,0.6c-0.5,0-0.7-0.2-0.7-0.7c0-0.2,0.1-0.4,0.4-0.9c1.3-1.5,1.9-2.9,1.9-4.1
		c0-2.6-2.8-3.9-8.5-3.9c-7.3,0-14.8,3.6-22.5,10.8c-6.8,6.6-10.2,12-10.2,16.3c0,1.7,0.9,2.6,2.6,2.6c1.1,0,2.6-0.4,4.5-1.3
		c4.7-2,8.6-5,11.8-8.9c1.2-1.6,2.3-4.1,3.3-7.5c0.6-2.6,1.1-4.9,1.2-7c0.3-1.5,1.8-2.3,4.5-2.3c2.5,0,3.7,0.7,3.5,2.1
		c-0.2,2.1-0.7,5.6-1.7,10.4s-2.4,11-4.3,18.5c3.2-0.5,5.8-0.6,8-0.2c6.1,0.7,9.1,2.8,9.1,6.1c0,2-1.2,4.2-3.6,6.4
		c-0.3,0.3-0.6,0.5-1,0.5c-0.5,0-0.7-0.2-0.7-0.6c0-0.3,0.2-0.6,0.5-1c1.7-1.5,2.6-3,2.6-4.4c0-2.7-2.7-4-8-4
		c-0.9,0.1-2,0.2-3.3,0.3c-1.3,0.1-2.8,0.3-4.5,0.5c-4.8,18.1-12.7,32.7-23.7,43.7c-6.1,6.2-13,11.2-20.8,14.9
		c-8.4,4.2-16.6,6.3-24.7,6.3c-6.1,0-10.9-1.5-14.5-4.6c-3.6-3-5.3-7-5.3-11.8c0-5.7,2.8-11.5,8.5-17.4c6.2-6.6,15.3-12.5,27.3-17.9
		c11.9-5.3,27.5-10.4,46.6-15.3c0.3-1.5,0.7-3.5,1.3-6c0.5-2.5,1.2-5.5,1.9-9.1l-2.9,2.9c-2,2-3.8,3.7-5.2,5
		c-1.5,1.3-2.6,2.4-3.5,3.1c-3.8,3-7.2,4.5-10.2,4.5c-3.6,0-5.3-2.3-5.3-7c0-6.8,5-14.1,15.1-21.9c8.2-6.4,16.4-9.6,24.8-9.6
		c6.5,0,9.7,1.9,9.7,5.6C919.6,92.4,918.7,94.5,916.8,96.8z M893.3,126.5c-8.7,2.4-15.4,4.4-20,5.8c-4.9,1.5-9.4,3.1-13.5,4.6
		s-7.9,3.1-11.4,4.7c-4.9,2.3-9.3,4.7-13.1,7.4c-3.8,2.6-7,5.5-9.6,8.6c-4.5,5.4-6.8,10.6-6.8,15.7c0,4.1,1.5,7.4,4.6,9.7
		s7.2,3.5,12.3,3.5c10.9,0,21.6-4.6,32.1-13.9C880.2,161.4,888.7,146.1,893.3,126.5z"/>
</g>
<path fill="#FFFFFF" d="M250.9,72.4c4.8-4.6,12.3-11.3,23.5-21.5c24.1-21.8,23.3-33.3,23-37.3s-4.1-12.9-14.1-12.1
	c-4.1,0.3-8.6,1-16.1,9.7c-1.6,1.9-3,3.8-4.2,5.5c0-0.4-0.1-0.8-0.1-1.2c-0.6-7.6-5.8-12.6-12.9-12.1s-16.8,9.5-15.3,28.3
	c1.1,14,8.2,29.8,12,38.3c-4.3,5.7-6.4,9.2-5.9,12.3c0.8,4.9,4.5,5.5,6.4,5.5c3.8,0,5.6-3.5,5.5-6.6
	C252.6,76.5,250.9,72.4,250.9,72.4z M250.5,81.4c-0.3,2.8-2.3,4.7-3.4,4.8c-1.1,0.1-3.5-1-3.4-4.4c0.1-2.7,2.2-5.2,5.1-7.5
	C250.4,78.1,250.7,79.8,250.5,81.4z M268.8,46.2c-8.1,7.7-15.4,15.7-20.4,21.9c-3.8-8.3-10.4-24.5-11-36
	c-0.6-11.8,5.4-24.6,14.4-24.9c7.7-0.2,9.1,7.9,8.7,12.5c0,0.5-0.1,0.9-0.1,1.4c-4.1,7.8-2.1,11.2-0.7,11c3.1-0.2,3.1-3.9,3.4-9.6
	c11-18.8,17.5-18.1,20.8-18.3c4.1-0.2,8.1,3.5,8,9.4C291.9,20.1,284.5,31.3,268.8,46.2z"/>
</svg>
