<svg width="166" height="83" viewBox="0 0 166 83" fill="none" xmlns="http://www.w3.org/2000/svg">
<path d="M157.665 37.3987L166 45.7404L128.633 83L120.298 74.7973L145.997 49.0771H125.16L91.2654 83L82.9307 74.7973L157.665 0L166 8.34171L136.967 37.3987H157.665Z" fill="#F46037"/>
<path d="M8.0569 26.6936V16.5445C8.0569 15.1542 7.08452 14.5981 5.97322 14.5981H5.41757C4.44519 14.5981 3.4728 15.0152 2.91715 15.8493V26.8326H0V6.8125H2.91715V12.9298C3.75063 12.2346 4.86192 11.8175 5.97322 11.8175H6.94561C9.44602 11.8175 10.9741 13.7639 10.9741 16.1274V26.4155H8.0569V26.6936Z" fill="white"/>
<path d="M17.0861 6.8125V10.2882H14.1689V6.8125H17.0861ZM17.0861 12.0956V26.6936H14.1689V12.0956H17.0861Z" fill="white"/>
<path d="M23.1984 6.8125V10.2882H20.2812V6.8125H23.1984ZM23.1984 12.0956V26.6936H20.2812V12.0956H23.1984Z" fill="white"/>
<path d="M32.7837 14.5978H30.2833V22.2444C30.2833 23.4956 31.3946 24.4688 32.7837 24.4688V26.9713C29.4498 26.9713 27.5051 25.442 27.5051 22.3834V14.8759H25.6992V12.0953H27.5051L28.3386 8.06348H30.2833V12.0953H32.7837V14.5978Z" fill="white"/>
<path d="M38.7562 26.6937L34.5889 12.0957H37.506L40.2843 22.9399L43.2014 12.0957H46.2575L49.3136 22.9399L52.0918 12.0957H55.0089L50.9805 26.6937H47.7855L44.8684 16.4056L41.9512 26.6937H38.7562Z" fill="white"/>
<path d="M61.5382 26.8326C58.621 26.8326 56.9541 24.7472 56.9541 22.5227V16.4055C56.9541 14.042 58.76 11.9565 61.5382 11.9565H63.483C66.2612 11.9565 67.9282 14.042 67.9282 16.4055V22.5227C67.9282 24.8862 66.1223 26.8326 63.483 26.8326H61.5382ZM63.0662 24.3301C64.1775 24.3301 65.1499 23.4959 65.1499 22.2447V16.6835C65.1499 15.2932 64.1775 14.5981 63.0662 14.5981H61.816C60.7047 14.4591 59.7323 15.2932 59.7323 16.6835V22.2447C59.7323 23.6349 60.7047 24.3301 61.816 24.3301H63.0662Z" fill="white"/>
<path d="M79.041 14.5981H77.0963C75.985 14.5981 74.7348 15.2932 74.0402 16.4055V26.8326H71.123V12.0956H73.0678L73.4845 13.7639C74.5958 12.6517 75.985 11.9565 77.513 11.9565H79.041V14.5981Z" fill="white"/>
<path d="M90.0151 26.6936L85.5699 19.7421H84.1808V26.6936H81.2637V6.8125H84.1808V17.1006H85.5699L89.0427 12.0956H92.5156L87.7925 18.2128L93.2101 26.5545H90.0151V26.6936Z" fill="white"/>
<path d="M102.934 22.3837C102.934 20.5763 95.1548 20.5763 95.1548 16.5445V15.4323C95.1548 13.6249 96.6828 11.9565 99.3221 11.9565H100.85C103.49 11.9565 105.156 13.7639 105.156 15.8493V16.4055H102.517V15.9884C102.517 15.0152 101.684 14.4591 100.711 14.4591H99.6C98.7665 14.4591 98.0719 14.8761 98.0719 15.7103V16.2664C98.0719 18.3519 105.573 18.0738 105.573 22.2447V23.2179C105.573 25.0252 103.906 26.8326 101.267 26.8326H99.3221C96.5439 26.8326 94.877 25.0252 94.877 23.0788V22.3837H97.6552V22.9398C97.6552 23.774 98.4887 24.3301 99.6 24.3301H101.128C102.1 24.3301 102.934 23.774 102.934 23.0788V22.3837Z" fill="white"/>
<path d="M7.36234 51.5796C6.94561 51.5796 6.38996 51.4405 6.11213 51.3015V54.4992H4.72301V51.4405C4.30628 51.5796 4.02845 51.7186 3.4728 51.7186H2.63933C1.1113 51.7186 0 50.6064 0 49.4941V45.7404C0 44.4891 0.972385 43.5159 2.63933 43.5159H3.4728C3.88954 43.5159 4.30628 43.655 4.72301 43.794V40.7354H5.97322V43.933C6.38996 43.794 6.80669 43.655 7.22343 43.655H8.19582C9.72385 43.655 10.6962 44.7672 10.6962 45.8794V49.6332C10.6962 50.8844 9.72385 51.8576 8.19582 51.8576H7.36234V51.5796ZM3.33389 50.4673C4.02845 50.4673 4.5841 49.9112 4.5841 49.2161V45.8794C4.5841 45.0452 4.02845 44.4891 3.33389 44.4891H2.63933C1.94477 44.4891 1.38912 45.0452 1.38912 45.8794V49.0771C1.38912 49.9112 1.94477 50.3283 2.63933 50.3283H3.33389V50.4673ZM8.0569 50.4673C8.75146 50.4673 9.30711 49.9112 9.30711 49.2161V45.8794C9.30711 45.0452 8.75146 44.4891 8.0569 44.4891H7.36234C6.66778 44.4891 6.11213 45.0452 6.11213 45.8794V49.2161C6.11213 49.9112 6.66778 50.4673 7.36234 50.4673H8.0569Z" fill="white"/>
<path d="M14.5854 40.5962V42.4036H13.1963V40.5962H14.5854ZM14.5854 43.5158V51.5794H13.1963V43.5158H14.5854Z" fill="white"/>
<path d="M16.5303 43.5156H22.6424V44.6279H20.2809V51.4403H19.0307V44.6279H16.6692V43.5156H16.5303Z" fill="white"/>
<path d="M24.7266 51.5793V43.5156H25.9768V46.7133H29.3107V43.5156H30.5609V51.5793H29.3107V47.9645H25.9768V51.5793H24.7266Z" fill="white"/>
<path d="M34.7282 47.9645V49.0768C34.7282 49.9109 35.2839 50.328 35.9784 50.328H36.673C37.3676 50.328 37.9232 49.7719 37.9232 49.0768H39.1734V49.2158C39.1734 50.467 38.201 51.5793 36.8119 51.5793H35.7006C34.1726 51.5793 33.2002 50.467 33.2002 49.2158V45.8791C33.2002 44.6279 34.1726 43.5156 35.7006 43.5156H36.8119C38.3399 43.5156 39.1734 44.6279 39.1734 45.8791V48.1036H34.7282V47.9645ZM34.7282 46.9913H38.0621V45.8791C38.0621 45.0449 37.5065 44.4888 36.8119 44.4888H36.1174C35.4228 44.4888 34.8671 45.0449 34.8671 45.8791V46.9913H34.7282Z" fill="white"/>
<path d="M46.2579 46.1572V45.8791C46.2579 45.0449 45.7023 44.4888 45.0077 44.4888H44.4521C43.7575 44.4888 43.2019 45.0449 43.2019 45.8791V49.0768C43.2019 49.9109 43.7575 50.328 44.4521 50.328H45.0077C45.7023 50.328 46.2579 49.7719 46.2579 49.0768V48.7987H47.5081V49.2158C47.5081 50.467 46.5357 51.5793 45.1466 51.5793H44.1742C42.6462 51.5793 41.6738 50.467 41.6738 49.2158V45.8791C41.6738 44.6279 42.6462 43.5156 44.1742 43.5156H45.1466C46.6747 43.5156 47.5081 44.6279 47.5081 45.8791V46.2962H46.2579V46.1572Z" fill="white"/>
<path d="M61.3987 53.3868H60.1485V51.5794H55.1477V53.3868H53.8975V50.4672H55.0088C55.7033 48.3818 56.1201 46.0183 56.1201 43.6548H60.4263V50.4672H61.3987V53.3868ZM56.259 50.3282H59.0372V44.628H57.3703C57.2314 46.7134 56.8146 48.6598 56.259 50.3282Z" fill="white"/>
<path d="M70.2898 43.5156V51.5793H69.0396V44.7669H65.8446V49.3548C65.8446 50.8841 64.7333 51.7183 63.2053 51.7183H63.0664V50.6061H63.2053C63.8999 50.6061 64.4555 50.05 64.4555 49.3548V43.6547H70.2898V43.5156Z" fill="white"/>
<path d="M77.2355 51.5793V48.7987H75.5685L74.0405 51.5793H72.6514L74.1794 48.6597C73.207 48.3816 72.6514 47.5474 72.6514 46.7133V45.6011C72.6514 44.4888 73.6238 43.5156 75.0129 43.5156H78.4857V51.5793H77.2355ZM75.0129 47.5475H77.2355V44.6279H75.0129C74.4572 44.6279 73.9016 45.0449 73.9016 45.7401V46.4352C73.9016 47.1304 74.4572 47.5475 75.0129 47.5475Z" fill="white"/>
<path d="M2.08368 63.1188H3.33389C3.88954 63.1188 4.30628 62.7017 4.30628 62.1456V61.8675C4.30628 61.3114 3.88954 60.8943 3.33389 60.8943H2.63933C2.08368 60.8943 1.66695 61.3114 1.66695 61.8675V62.1456H0.277824V61.7285C0.277824 60.6163 1.1113 59.6431 2.50042 59.6431H3.4728C4.86192 59.6431 5.6954 60.6163 5.6954 61.7285V62.4236C5.6954 62.8407 5.41757 63.2578 5.00084 63.6749C5.55649 63.9529 5.97322 64.5091 5.97322 65.0652V65.8993C5.97322 67.0116 5.00084 67.9848 3.75063 67.9848H2.22259C0.833473 67.9848 0 67.0116 0 65.8993V65.4823H1.25021V65.7603C1.25021 66.3164 1.66695 66.7335 2.22259 66.7335H3.61172C4.16736 66.7335 4.5841 66.3164 4.5841 65.7603V65.3432C4.5841 64.7871 4.16736 64.37 3.61172 64.37H2.08368V63.1188Z" fill="white"/>
<path d="M14.0299 62.0067V67.8459H13.1964L13.0575 67.0118C12.5018 67.5679 11.8073 67.985 11.1127 67.985H10.1403C8.89011 67.985 8.05664 67.0118 8.05664 66.0386V65.2044C8.05664 63.9531 9.30685 63.397 10.4181 63.258L12.6407 62.9799V62.2848C12.6407 61.5897 12.0851 61.0336 11.3905 61.0336H10.9738C10.2792 61.0336 9.72359 61.4506 9.72359 62.1458V62.2848H8.47338V62.0067C8.47338 60.7555 9.44576 59.7823 10.8349 59.7823H11.6684C13.0575 59.6433 14.0299 60.7555 14.0299 62.0067ZM12.7797 65.8995V63.9531L10.696 64.2312C10.0014 64.3702 9.44576 64.7873 9.44576 65.2044V65.7605C9.44576 66.3166 9.8625 66.7337 10.4181 66.7337H11.1127C11.6684 66.7337 12.3629 66.4557 12.7797 65.8995Z" fill="white"/>
<path d="M16.3916 67.846V59.7824H17.6418V65.4826L20.9757 59.7824H22.2259V67.846H20.9757V62.1459L17.6418 67.846H16.3916ZM21.6703 56.8628V57.4189C21.6703 58.2531 20.9757 58.9482 20.1422 58.9482H18.892C18.0585 58.9482 17.364 58.2531 17.364 57.4189V56.8628H18.4753V57.2799C18.4753 57.697 18.7531 57.975 19.0309 57.975H20.0033C20.2811 57.975 20.559 57.697 20.559 57.2799V56.8628H21.6703Z" fill="white"/>
<path d="M24.7266 67.8459V59.7822H25.9768V62.9799H29.3107V59.7822H30.5609V67.8459H29.3107V64.2311H25.9768V67.8459H24.7266Z" fill="white"/>
<path d="M37.3673 67.8459V65.0653H35.7004L34.1723 67.8459H32.7832L34.3112 64.9263C33.3389 64.6482 32.7832 63.814 32.7832 62.9799V61.8677C32.7832 60.7554 33.7556 59.7822 35.1447 59.7822H38.6175V67.8459H37.3673ZM35.1447 63.814H37.3673V60.8945H35.1447C34.5891 60.8945 34.0334 61.3115 34.0334 62.0067V62.7018C34.0334 63.397 34.5891 63.814 35.1447 63.814Z" fill="white"/>
<path d="M40.4238 59.7822H46.536V60.8945H44.1745V67.7068H42.9242V60.8945H40.5627V59.7822H40.4238Z" fill="white"/>
<path d="M48.3418 67.8459V59.7822H49.592V65.4824L52.9259 59.7822H54.1761V67.8459H52.9259V62.1457L49.592 67.8459H48.3418Z" fill="white"/>
<path d="M56.1201 67.8459L58.8984 63.675L56.3979 59.7822H57.926L59.7318 62.5628L61.5377 59.7822H63.0657L60.5653 63.675L63.2046 67.7068H61.6766L59.7318 64.7872L57.6481 67.7068H56.1201V67.8459Z" fill="white"/>
</svg>
