<?xml version="1.0" encoding="utf-8"?>
<!-- Generator: Adobe Illustrator 21.0.2, SVG Export Plug-In . SVG Version: 6.00 Build 0)  -->
<svg version="1.1" id="Layer_1" xmlns="http://www.w3.org/2000/svg" xmlns:xlink="http://www.w3.org/1999/xlink" x="0px" y="0px"
	 width="284px" height="63px" viewBox="0 0 284 63" style="enable-background:new 0 0 284 63;" xml:space="preserve">
<style type="text/css">
	.st0{fill:#08296C;}
	.st1{clip-path:url(#SVGID_2_);fill:#08296C;}
	.st2{clip-path:url(#SVGID_4_);fill:url(#SVGID_5_);}
</style>
<rect x="103.9" y="17.5" class="st0" width="5.2" height="4.4"/>
<polygon class="st0" points="88.3,17.5 82.7,17.5 82.7,43.5 101,43.5 101,38.6 88.3,38.6 "/>
<rect x="103.9" y="24.7" class="st0" width="5.2" height="18.8"/>
<g>
	<defs>
		<rect id="SVGID_1_" x="-0.2" y="1.2" width="283.7" height="61.3"/>
	</defs>
	<clipPath id="SVGID_2_">
		<use xlink:href="#SVGID_1_"  style="overflow:visible;"/>
	</clipPath>
	<path class="st1" d="M121.5,17.4c-0.3,0-0.6,0-0.9,0c-2.3,0-4,0.5-5,1.5c-1,1-1.5,2.6-1.5,4.8v1h-3.1v3.5h3.1v15.3h5.2V28.2h3.6
		v-3.5h-3.7v-1.5c0-0.8,0.2-1.3,0.5-1.5c0.3-0.3,0.9-0.4,1.8-0.4c0.1,0,0.6,0,1.7,0.1v-3.8c-0.2,0-0.5,0-0.8,0
		C122.1,17.5,121.8,17.4,121.5,17.4"/>
	<path class="st1" d="M133.9,24.1c-2.7,0-5,0.9-6.8,2.8c-1.8,1.9-2.7,4.3-2.7,7.2c0,3,0.9,5.3,2.6,7.1c1.8,1.8,4.1,2.7,7,2.7
		c2.2,0,4-0.6,5.6-1.7c1.6-1.1,2.6-2.7,3.2-4.7h-5c-0.7,1.8-2,2.7-3.8,2.7c-1.4,0-2.5-0.4-3.2-1.3c-0.8-0.9-1.2-2.1-1.2-3.7h13.5
		v-0.5c0-3.3-0.8-5.9-2.5-7.9C139,25.1,136.8,24.1,133.9,24.1 M129.7,32.1c0.1-1.3,0.6-2.3,1.3-3.1c0.8-0.8,1.7-1.1,2.8-1.1
		c1.2,0,2.2,0.4,2.8,1.2c0.7,0.8,1.1,1.8,1.2,3H129.7z"/>
	<path class="st1" d="M163.2,39.2c-1.3,1.3-3.1,1.9-5.3,1.9c-2.7,0-4.8-0.9-6.4-2.8c-1.6-1.9-2.3-4.5-2.3-7.8c0-3,0.7-5.5,2.2-7.5
		c1.5-2,3.6-3.1,6.5-3.1c1.9,0,3.5,0.5,4.8,1.4c1.3,1,2.2,2.3,2.6,4h3.4c-0.2-2.6-1.4-4.7-3.5-6.2c-2.1-1.5-4.5-2.2-7.2-2.2
		c-3.8,0-6.8,1.3-9,3.9c-2.2,2.6-3.3,5.8-3.3,9.7c0,4.2,1.1,7.5,3.2,9.9c2.2,2.4,5.1,3.7,8.8,3.7c3.2,0,5.8-0.9,7.8-2.8
		c2-1.8,3.1-4.4,3.4-7.7h-3.4C165.3,36.1,164.5,37.9,163.2,39.2"/>
	<path class="st1" d="M182.1,24.2c-2.7,0-4.8,1-6.2,3.1v-9.8h-3.1v25.9h3.1v-9.5c0-2.3,0.4-4,1.2-5.2c0.8-1.2,2.2-1.8,4.1-1.8
		c1.6,0,2.6,0.4,3.2,1.1c0.6,0.8,0.9,1.9,0.9,3.3v12.1h3.1V30.6C188.4,26.3,186.3,24.2,182.1,24.2"/>
	<path class="st1" d="M208,40.7c-0.2-0.3-0.3-0.8-0.3-1.4c0-0.9,0-2.3,0.1-4.2c0-1.9,0.1-3.3,0.1-4.2c0-0.8,0-1.4,0-1.8
		c0-0.4-0.1-0.9-0.3-1.5c-0.2-0.6-0.5-1.1-0.9-1.5c-1.3-1.2-3.3-1.8-5.9-1.8c-2.4,0-4.3,0.6-5.7,1.7c-1.4,1.1-2.1,2.7-2.1,4.7h3
		c0.1-1.4,0.6-2.3,1.3-2.9c0.8-0.6,1.9-0.9,3.3-0.9c2.8,0,4.3,1,4.3,3.1c0,0.2,0,0.3,0,0.5c-0.1,0.9-0.5,1.5-1.4,1.8
		c-0.4,0.1-1.9,0.4-4.6,0.7c-4.4,0.6-6.7,2.5-6.7,5.9c0,1.7,0.5,3,1.6,3.9c1.1,0.9,2.5,1.4,4.4,1.4c2.8,0,5-1,6.8-3
		c0,1.8,1,2.8,2.7,2.8c0.8,0,1.5-0.1,2.1-0.4V41c-0.3,0.1-0.6,0.1-0.8,0.1C208.5,41.1,208.1,40.9,208,40.7 M204.7,37.1
		c0,1.2-0.6,2.2-1.7,3.1c-1.2,0.9-2.5,1.3-4,1.3c-1.2,0-2.1-0.3-2.8-0.8c-0.7-0.6-1-1.3-1-2.3c0-0.6,0.1-1.1,0.4-1.5
		c0.3-0.4,0.5-0.7,0.8-1c0.3-0.2,0.7-0.4,1.4-0.6c0.6-0.2,1.1-0.3,1.3-0.3c0.2,0,0.7-0.1,1.5-0.2c0,0,0.3,0,0.8-0.1s0.8-0.1,1-0.1
		c0.1,0,0.4-0.1,0.8-0.2c0.4-0.1,0.7-0.2,0.9-0.3c0.2-0.1,0.5-0.3,0.7-0.4V37.1z"/>
	<path class="st1" d="M222,24.1c-2.7,0-4.9,1.1-6.4,3.4v-2.9h-2.9v18.8h3.1v-9.8c0-4.5,1.8-6.8,5.4-6.8c0.9,0,1.7,0.1,2.3,0.4
		c0.6,0.3,1,0.7,1.2,1.3c0.2,0.6,0.4,1.2,0.5,1.7c0.1,0.5,0.1,1.2,0.1,2.2v11.1h3.1V31c0-2.2-0.5-3.9-1.5-5.1
		C225.8,24.7,224.2,24.1,222,24.1"/>
	<path class="st1" d="M246.3,27.4c-0.6-1-1.4-1.8-2.4-2.4c-1-0.6-2.2-0.8-3.5-0.8c-2.6,0-4.7,1-6.2,2.9c-1.5,2-2.2,4.3-2.2,7
		c0,2.9,0.7,5.2,2.2,7c1.5,1.7,3.5,2.6,6,2.6c2.8,0,4.8-1.1,6-3.4l0,2.3c0,2.2-0.5,3.7-1.4,4.7c-0.9,1-2.3,1.5-4.2,1.5
		c-2.9,0-4.5-1-4.8-3.1h-3.2c0.2,2,1.1,3.4,2.5,4.2c1.5,0.9,3.2,1.3,5.4,1.3c3.6,0,6-1.1,7.4-3.4c0.5-0.8,0.8-1.6,0.9-2.5
		c0.2-0.9,0.3-2.1,0.3-3.8V24.7h-2.8V27.4z M244.7,39c-1,1.3-2.3,2-4.1,2c-1.7,0-3-0.6-4-1.9c-1-1.3-1.5-2.9-1.5-5
		c0-2.3,0.5-4.1,1.4-5.4c1-1.3,2.3-1.9,4-1.9c1.8,0,3.2,0.6,4.1,1.8c1,1.2,1.5,2.9,1.5,5C246.1,35.9,245.7,37.7,244.7,39"/>
	<path class="st1" d="M261.6,24.1c-2.6,0-4.7,0.9-6.3,2.8c-1.6,1.9-2.4,4.3-2.4,7.4c0,3.1,0.8,5.5,2.4,7.2c1.6,1.7,3.7,2.6,6.5,2.6
		c4.5,0,7.2-2.2,8.2-6.6h-3c-0.4,1.4-1.1,2.4-1.8,3.1c-0.8,0.6-1.9,0.9-3.2,0.9c-1.8,0-3.3-0.6-4.3-1.7c-1-1.1-1.6-2.7-1.6-4.7
		l0-0.2h14.1v-0.4c0-3-0.7-5.5-2.1-7.4C266.6,25.1,264.4,24.1,261.6,24.1 M255.9,32.4c0.2-1.8,0.8-3.2,1.8-4.2c1-1,2.2-1.5,3.8-1.5
		c1.6,0,2.8,0.5,3.8,1.5c0.9,1,1.5,2.4,1.6,4.2H255.9z"/>
	<path class="st1" d="M276.2,28.7v-4h-3v18.8h3.1v-7.9c0-0.9,0-1.7,0.1-2.5c0.1-0.7,0.3-1.5,0.5-2.2c0.3-0.7,0.6-1.3,1-1.8
		c0.4-0.5,1-0.9,1.7-1.2c0.7-0.3,1.6-0.5,2.6-0.5c0.3,0,0.6,0,0.8,0v-3.2C279.8,24.2,277.4,25.7,276.2,28.7"/>
	<polygon class="st1" points="246.5,16 249.6,16 249.6,10.2 255.7,10.2 255.7,7.7 249.6,7.7 249.6,4.4 256.6,4.4 256.6,1.8 
		246.5,1.8 	"/>
	<path class="st1" d="M268.4,9.1c-0.7-0.6-1.7-1.1-3.1-1.5c-0.3-0.1-0.7-0.2-1.1-0.3c-0.4-0.1-0.8-0.2-1-0.3
		c-0.2-0.1-0.5-0.1-0.8-0.2c-0.3-0.1-0.5-0.2-0.6-0.2c-0.1-0.1-0.3-0.2-0.4-0.3c-0.1-0.1-0.2-0.2-0.3-0.4C261,5.8,261,5.7,261,5.5
		c0-0.5,0.2-0.9,0.6-1.2c0.4-0.3,1-0.4,1.7-0.4c1.7,0,2.6,0.7,2.7,2.1h3c0-1.5-0.5-2.7-1.6-3.4c-1-0.8-2.3-1.1-3.9-1.1
		c-1.7,0-3,0.4-4,1.2c-1,0.8-1.5,1.8-1.5,3.1c0,0.4,0,0.8,0.1,1.1s0.2,0.6,0.3,0.9c0.1,0.2,0.3,0.5,0.6,0.7c0.3,0.2,0.5,0.4,0.7,0.5
		c0.2,0.1,0.5,0.3,0.9,0.4c0.4,0.1,0.7,0.2,0.9,0.3c0.2,0.1,0.5,0.2,1,0.3c0.1,0,0.3,0.1,0.5,0.1c1.4,0.4,2.3,0.7,2.7,0.9
		c0.4,0.2,0.6,0.6,0.6,1.1c0,0.6-0.2,1-0.7,1.4c-0.5,0.3-1.1,0.5-1.9,0.5c-2.1,0-3.2-0.9-3.2-2.7h-3.1c0,1.6,0.6,2.9,1.6,3.7
		c1.1,0.9,2.6,1.3,4.5,1.3c0.8,0,1.5-0.1,2.1-0.3c0.7-0.2,1.3-0.4,1.9-0.8c0.6-0.4,1-0.8,1.3-1.4c0.3-0.6,0.5-1.3,0.5-2.1
		C269.5,10.6,269.1,9.7,268.4,9.1"/>
	<path class="st1" d="M280.4,1.8v8.5c0,1.2-0.2,2-0.6,2.6s-1.2,0.8-2.3,0.8c-1.2,0-2-0.3-2.4-0.8c-0.4-0.6-0.7-1.4-0.7-2.6V1.8h-3.1
		v8.5c0,2,0.5,3.5,1.5,4.5c1,1,2.5,1.5,4.6,1.5c2.1,0,3.6-0.5,4.6-1.4c1-1,1.5-2.5,1.5-4.5V1.8H280.4z"/>
</g>
<g>
	<defs>
		<path id="SVGID_3_" d="M66.4,44c-0.2,0.4-0.5,0.7-0.8,1c-0.6,0.7-1.1,1.5-1.7,2.2c-0.6,0.7-1.2,1.4-1.8,2.1
			c-0.3,0.4-0.6,0.7-0.9,1c-0.3,0.3-0.6,0.6-0.9,0.9c-3.2,3.5-7,6.4-11.3,8.4c4.5-1.5,8.9-4,12.4-7.7l0.9-1.1l0.4-0.5l0.4-0.6
			c0.5-0.8,1-1.5,1.5-2.2c0.5-0.8,0.9-1.5,1.3-2.3c0.2-0.4,0.5-0.8,0.6-1.1c0.2-0.4,0.4-0.8,0.6-1.2C66.9,43.3,66.6,43.6,66.4,44
			 M38.3,56.5c0.5-0.1,1-0.1,1.5-0.2c0.5-0.1,0.9-0.2,1.3-0.3c0.3-0.1,0.5-0.1,0.8-0.2c3.9-1.1,7.4-3.1,10.4-5.7l0.6-0.5l0.6-0.6
			c0.4-0.4,0.8-0.8,1.2-1.2c0.2-0.2,0.4-0.4,0.5-0.6l0.5-0.6c0.3-0.4,0.7-0.9,1-1.3c0.3-0.5,0.6-0.9,0.9-1.4
			c0.3-0.5,0.6-0.9,0.8-1.4c0.2-0.5,0.5-1,0.7-1.4c0.1-0.2,0.2-0.5,0.3-0.7l0.3-0.7c-0.1,0.8-0.4,1.6-0.7,2.5
			c-0.2,0.4-0.3,0.9-0.5,1.3c-0.2,0.4-0.5,0.9-0.7,1.3c-1,1.8-2.5,3.5-4.3,5.2c-2.7,2.5-6.3,4.4-10,5.5c0,0,0,0,0,0
			c-0.2,0.1-0.4,0.1-0.7,0.2c-0.9,0.2-1.8,0.4-2.7,0.6c-3.6,0.8-7.4,0.8-11,0c0.7,0.1,1.3,0.2,1.6,0.2c1.5,0.2,2.9,0.2,4.2,0.2
			C36,56.7,37.2,56.6,38.3,56.5 M31.5,59.8c-3.9-0.7-7.6-2-10.8-4c-3.2-2-6.1-4.5-8.3-7.3c-2.2-2.9-3.8-6.1-4.8-9.4
			c-1-3.3-1.4-6.7-1.2-10l0.3-2.4l0.5-2.4c0.1-0.4,0.2-0.8,0.3-1.1l0.4-1.1c0.2-0.8,0.6-1.5,0.9-2.2c1.2-2.8,3-5.4,5-7.5
			c-0.3,0.4-0.5,0.8-0.7,1.2c-0.2,0.4-0.4,0.8-0.7,1.2c-0.2,0.4-0.4,0.9-0.6,1.3l-0.3,0.6L11.2,17l-0.1,0.3
			c-0.3,0.6-0.5,1.2-0.8,1.9c-0.2,0.6-0.4,1.3-0.6,1.9l-0.2,0.5l-0.1,0.5l-0.2,1l-0.3,1l-0.2,1c-0.1,0.6-0.3,1.1-0.4,1.7
			c-0.1,0.6-0.2,1.1-0.3,1.7l-0.2,0.9c0,0.3,0,0.6-0.1,0.9c0,0.6-0.1,1.2-0.1,1.8c0,2.3,0.1,4.8,0.8,7.2c0.3,1.2,0.8,2.4,1.2,3.6
			c0.2,0.6,0.6,1.2,0.9,1.7l0.5,0.9c0.2,0.3,0.4,0.6,0.5,0.8c0.4,0.5,0.8,1.1,1.2,1.6c0.4,0.5,0.9,1,1.4,1.5
			c0.2,0.2,0.5,0.5,0.7,0.7c0.3,0.2,0.5,0.5,0.8,0.7c0.3,0.2,0.5,0.4,0.8,0.7c0.3,0.2,0.6,0.5,0.9,0.6L17,51.8l-0.3-0.3
			c-0.2-0.2-0.4-0.4-0.6-0.6c-0.4-0.4-0.8-0.7-1.1-1.1c-0.7-0.8-1.2-1.6-1.8-2.4c-0.5-0.8-0.9-1.7-1.3-2.5c-0.3-0.8-0.6-1.7-0.8-2.5
			c1.4,3,3.4,5.7,5.9,8.1c0.2,0.1,0.4,0.2,0.6,0.3c0.2,0.1,0.4,0.2,0.6,0.3c0.4,0.2,0.7,0.4,1,0.7l0.8,0.6l0.8,0.5
			c0.7,0.6,1.4,1.3,2.2,1.8c0.4,0.3,0.8,0.5,1.2,0.8l0.6,0.4c0.2,0.1,0.4,0.2,0.6,0.3c4.4,2,9.4,2.9,14.4,2.7
			c5.1-0.3,10.1-1.8,14.9-4.4c-5.4,3.8-11.8,5.8-18.1,5.8C34.9,60.3,33.2,60.1,31.5,59.8 M42.7,1.9c0.5,0.1,0.9,0.2,1.4,0.3
			c0.4,0.1,0.9,0.3,1.3,0.4c0.4,0.1,0.8,0.3,1.2,0.4c0.4,0.1,0.7,0.3,1,0.4c0.3,0.2,0.6,0.3,0.9,0.5c0.3,0.2,0.6,0.3,0.8,0.5
			c1.7,0.9,3.6,2,5.1,3.4c0.4,0.3,0.8,0.7,1.2,1c0.4,0.4,0.7,0.8,1.1,1.1c0.7,0.7,1.3,1.5,1.9,2.3c0.6,0.8,1.1,1.6,1.5,2.3
			c0.2,0.4,0.5,0.7,0.6,1.1c0.2,0.4,0.3,0.7,0.5,1c0.3,0.6,0.6,1.2,0.7,1.6c0.1,0.5,0.2,0.8,0.3,1c0.1,0.4,0,0.3-0.4-0.4
			c-0.1-0.2-0.2-0.4-0.3-0.7c-0.1-0.3-0.3-0.6-0.5-0.9c-0.4-0.7-0.8-1.6-1.6-2.6c-1.3-2-3.4-4.6-6.7-7.1c-0.4-0.3-0.9-0.6-1.3-0.9
			c-0.2-0.2-0.4-0.3-0.7-0.5c-0.2-0.1-0.5-0.3-0.7-0.4c-0.5-0.3-1-0.6-1.5-0.8c-0.5-0.2-1.1-0.5-1.7-0.7c-2.3-0.9-5-1.6-7.9-1.8
			c0.3,0.1,1.2,0.4,2.5,0.7c0.6,0.2,1.3,0.5,2.1,0.7c0.7,0.3,1.5,0.7,2.2,1c0.7,0.4,1.4,0.8,2.1,1.2c0.6,0.4,1.2,0.9,1.7,1.2
			c0.3,0.2,0.5,0.4,0.6,0.6c0.2,0.2,0.3,0.3,0.5,0.5c0.3,0.3,0.4,0.5,0.4,0.5c0,0.1-0.3,0-0.7-0.3c-0.2-0.1-0.5-0.3-0.7-0.5
			c-0.3-0.2-0.6-0.4-1-0.6c-0.4-0.2-0.8-0.5-1.2-0.8c-0.4-0.2-0.9-0.5-1.4-0.7c-0.5-0.3-1-0.5-1.5-0.7c-0.3-0.1-0.5-0.2-0.8-0.3
			c-0.1-0.1-0.3-0.1-0.4-0.2l-0.4-0.1c-0.6-0.2-1.1-0.4-1.6-0.5c-0.5-0.1-1.1-0.2-1.6-0.4c-0.3-0.1-0.5-0.1-0.8-0.2
			c-0.3,0-0.5-0.1-0.8-0.1c-0.5,0-0.9-0.1-1.4-0.1c-0.2,0-0.4,0-0.6,0c-0.2,0-0.4,0-0.5,0c-0.3,0-0.6,0-0.9,0
			c-0.5,0-0.7,0.1-0.7,0.1c0.2,0.2,0.9,0.5,1.9,0.8c0.1,0,0.2,0.1,0.4,0.1c0.1,0,0.3,0.1,0.4,0.1c0.3,0.1,0.5,0.2,0.8,0.3
			C37.7,4.9,38,5,38.2,5.1c0.3,0.1,0.6,0.3,0.8,0.4c0.3,0.1,0.6,0.3,0.8,0.4L40.3,6c0.1,0.1,0.3,0.2,0.4,0.2c0.5,0.3,1,0.6,1.5,0.8
			c0.8,0.6,1.5,1,1.9,1.2c0.6,0.1,0.9,0.4,1.4,0c0.2,0.1,0.4,0.3,0.6,0.4c0.2,0.1,0.4,0.3,0.6,0.4c0.4,0.3,0.8,0.5,1.2,0.7
			c0.4,0.3,0.8,0.6,1.2,0.8c0.2,0.1,0.4,0.3,0.6,0.4c0.2,0.2,0.4,0.3,0.6,0.5c2.2,1.7,4.4,3.7,5.9,6.4c1.5,2.6,2.3,5.8,1.6,8.9
			c-0.1,0.3,0.1,0.7,0.2,1.2c0.2,0.5,0.4,1,0.4,1.4c-0.1,0.6-0.2,1.2-0.3,1.7c0,0.3-0.1,0.6-0.2,0.9l-0.3,0.8l-0.3,0.8
			c-0.1,0.3-0.3,0.5-0.4,0.8c-0.3,0.5-0.5,1.1-0.8,1.6c-1.2,2-2.6,3.8-3.9,5.8c-0.5,0.6-1,1.1-1.5,1.5c-0.6,0.4-1.2,0.8-1.8,1.2
			c-0.6,0.4-1.3,0.7-1.9,1c-0.6,0.3-1.3,0.6-1.8,1c-2.7,1.9-6.1,2.9-9.4,2.8c-3.4,0-6.6-0.9-9.5-2.5c-0.1,0.7-0.7,0.7-1.3,0.6
			c-0.6-0.2-1.2-0.7-1.5-0.9c-3.1-1.6-5.6-4-7.3-6.8c-1.7-2.8-2.6-5.8-2.8-8.6c-0.5-2.7-0.5-5.5,0.3-8.2c0.7-2.8,2.2-5,3.8-6.9
			c1.7-1.9,3.5-3.3,5.4-4.9l0.4-0.4c0.2-0.1,0.3-0.2,0.5-0.3l1-0.7c0.3-0.2,0.7-0.4,1.1-0.5l0.5-0.3c0.2-0.1,0.4-0.1,0.6-0.2
			c0.4-0.1,0.8-0.3,1.1-0.4c0.4-0.1,0.8-0.2,1.2-0.2c0.8-0.2,1.7-0.2,2.5-0.2c0.6,0.1,1.3-0.1,1.8-0.4c0.1-0.1,0.2-0.1,0.3-0.2
			c0.1-0.1,0.2-0.1,0.2-0.2c0.1-0.1,0-0.3-0.3-0.4c-0.6-0.3-1.3-0.5-2-0.7c-0.5,0-0.9,0-1.4,0c-0.2,0-0.5,0-0.7,0
			c-0.2,0-0.5,0-0.7,0.1c-0.5,0-1,0.1-1.5,0.1c-0.5,0.1-1,0.2-1.5,0.2c-2,0.4-4.1,1.1-5.6,2.5c-1.4,0.7-2.4,2-3.4,3.3
			c-0.3,0.2-0.6,0.7-1,1c-0.4,0.4-0.8,0.7-1.3,0.7c1.4-2.1,3.2-4,5.1-5.5l0.8-0.6c0.3-0.2,0.5-0.4,0.8-0.5l1.6-1l1.7-0.8
			c0.3-0.2,0.6-0.2,0.9-0.4l0.9-0.3c-0.3-0.1-0.7-0.4-1-0.1c0-0.3,0-0.6,0-0.6s-0.1,0-0.3,0.1c-0.2,0-0.5,0.1-0.7,0.2
			c0.5-0.7,3.2-1.2,2.1-1.4c-2.5,0-5,1-7.1,2.5c-0.4,0.2-0.9,0.3-1.3,0.5c0.2,0,0.5,0,0.7,0c-0.4,0.3-0.7,0.6-1.1,0.9
			c-0.4,0.2-0.8,0.5-1.2,0.7c-0.8,0.1-1.5,0.2-2.2,0.5c-0.4,0.1-0.8,0.2-1.2,0.4c-0.4,0.2-0.8,0.3-1.2,0.6c-0.5,0.3-1,0.7-1.5,1.1
			l-0.4,0.3c-0.1,0.1-0.2,0.2-0.3,0.3c-0.2,0.2-0.4,0.5-0.7,0.7c-0.2,0.2-0.4,0.5-0.6,0.7l-0.3,0.4L8,13.1c-0.4,0.5-0.7,1.1-1.1,1.6
			c-1.3,2.3-2.5,4.8-3.3,7.4c-1.3,3.7-1.8,7.8-1.4,12c0.4,4.2,1.8,8.4,4,12.2c2.2,3.8,5.3,7.3,9.1,9.9c3.8,2.7,8.2,4.6,12.9,5.5
			c0.5,0.1,1.2,0.3,2,0.4c0.8,0.1,1.7,0.1,2.5,0c-6-0.7-11.6-2.8-16.2-6.1c-0.6-0.4-1.1-0.8-1.7-1.3l-1.6-1.4l-0.8-0.7
			c-0.2-0.2-0.5-0.5-0.7-0.8l-1.4-1.5c-0.4-0.5-0.8-1.1-1.3-1.6c-0.4-0.5-0.8-1.1-1.2-1.7l-1-1.7l-0.3-0.4l-0.2-0.5L6,43.7
			c-0.3-0.6-0.6-1.2-0.8-1.8L4.5,40c-0.1-0.3-0.2-0.6-0.3-0.9l-0.2-1l-0.4-1.9c-0.1-0.6-0.2-1.3-0.3-1.9c-0.1-0.6-0.2-1.3-0.2-1.9
			c0-1.3-0.1-2.5,0.1-3.8l0.2-1.9c0.1-0.6,0.2-1.2,0.4-1.8L3.9,24L4,23.6l0.1-0.4l0.6-1.7c0.1-0.3,0.2-0.6,0.3-0.9l0.4-0.8l0.8-1.6
			c0.3-0.5,0.6-1,0.9-1.5c0.3-0.5,0.6-1,1-1.5c2.3-3,5.1-5.4,8.1-7c-1.6,1-3.1,2.3-4.5,3.7c-1.8,2-3.4,4.2-4.6,6.8
			c-1.2,2.5-2,5.3-2.4,8.3c-0.4,2.9-0.3,6,0.2,9c0.6,3,1.6,6,3.1,8.8c1.5,2.8,3.5,5.4,5.8,7.7c0.6,0.6,1.2,1.1,1.8,1.7l2,1.5
			l0.5,0.4c0.2,0.1,0.4,0.2,0.5,0.3l1.1,0.7l1.1,0.7c0.4,0.2,0.8,0.4,1.1,0.6l1.2,0.6c0.4,0.2,0.8,0.4,1.2,0.5l2.4,0.9
			c0.4,0.2,0.8,0.3,1.2,0.4l1.3,0.3l1.3,0.3l1.3,0.2c0.5,0.1,1,0.2,1.4,0.2l0.7,0.1c0.2,0,0.3,0,0.5,0c-0.1,0.1-0.2,0.2-0.3,0.2
			c-0.3,0.2-0.8,0.3-1.4,0.3c0.5,0.1,1,0.1,1.4,0.2c0.5,0,1,0,1.4,0c4.5,0.1,9.1-0.8,13.4-2.7c-2,0.6-4,1.1-6,1.3l0.6-0.1
			c3.9-1,7.6-2.9,10.6-5.4c0.5-0.5,1.1-0.9,1.8-1.4c0.4-0.2,0.7-0.5,1-0.7c0.4-0.3,0.7-0.5,1.1-0.8c0.4-0.3,0.7-0.5,1.1-0.8
			c0.3-0.3,0.6-0.6,1-0.9c0.6-0.6,1.2-1.2,1.5-1.7c0.4-0.6,0.8-1.3,1.3-1.9c0.2-0.3,0.4-0.6,0.6-1l0.6-1c0.4-0.7,0.8-1.3,1.1-2
			l1-2.1c0.2-0.4,0.3-0.7,0.5-1.1l0.4-1.1c0.3-0.7,0.5-1.4,0.7-2.2c0.2-0.7,0.4-1.5,0.6-2.2c0.1-0.4,0.2-0.7,0.3-1.1l0.2-1.1
			c0.1-0.8,0.2-1.5,0.3-2.2c0-0.7,0-1.5,0.1-2.2c0.1-1.5-0.1-3-0.3-4.4l-0.1-0.5l-0.1-0.5c-0.1-0.4-0.2-0.7-0.3-1.1
			c-0.2-0.7-0.3-1.4-0.6-2.1c-0.3-0.7-0.5-1.3-0.8-1.9c-0.1-0.3-0.3-0.6-0.4-0.9c-0.2-0.3-0.3-0.6-0.5-0.9c0,0-0.3-1-0.6-1.9
			c-0.2-0.5-0.4-0.9-0.5-1.3c-0.2-0.4-0.3-0.6-0.3-0.6c0.4,1.6,0.8,3.3,1.4,4.7c0,0.2,0,0.3,0,0.5c0.2,0.4,0.3,0.6,0.4,0.8
			c0,0.5,0,1,0.1,1.5c0,0.3,0.1,0.5,0.1,0.8c0,0.3,0,0.5,0.1,0.8c0.1,1.1,0.3,2.3,0.3,3.5c0,0.6,0.1,1.2,0.1,1.9c0,0.3,0,0.6,0,1
			c0,0.3,0,0.7,0,1c0,0.7,0,1.4,0,2c0,0.7-0.1,1.4-0.1,2.1c-0.3,5.7-2.4,11.9-5.7,16.2c-2,2.4-4.2,4.6-6.8,6.4
			c0.3-0.5,0.7-1.1,1.2-1.7c0.4-0.6,0.8-1.3,1.3-1.8c2.3-2.3,4.5-4.9,6.1-7.8c1.6-2.9,2.7-6,3-9c-0.3,0.7-0.5,1.4-0.9,2
			c-0.3,0.6-0.7,1.3-1,1.9c-0.3,0.6-0.7,1.3-1.1,1.9c-0.2,0.3-0.4,0.6-0.5,1c-0.1,0.2-0.2,0.3-0.3,0.5c-0.1,0.2-0.2,0.3-0.3,0.5
			c-0.4,0.6-0.6,1.5-0.9,2.4c-0.3,0.8-0.7,1.7-1.2,2.2c-2.5,2.9-4.9,5.4-7.6,7.4c-0.7,0.5-1.4,1-2.1,1.4c-0.7,0.4-1.5,0.8-2.3,1.2
			c-0.8,0.4-1.6,0.6-2.5,0.9c-0.4,0.1-0.9,0.2-1.3,0.3c-0.4,0.1-0.9,0.1-1.4,0.2c-0.3,0-0.6,0-0.9-0.1c-0.3-0.1-0.5-0.2-0.8-0.1
			c3.9-0.7,7.5-2.4,10.5-4.6c3.1-2.3,5.8-5.1,8.3-8.4c0.2-0.2,0.4-0.5,0.7-0.7c0.2-0.2,0.4-0.5,0.5-0.7c0.4-0.5,0.7-0.9,1-1.3
			c0.2-0.5,0.4-1.1,0.6-1.6c0.2-0.5,0.4-1,0.6-1.4c0.1-0.1,0.1-0.3,0.2-0.4c0.1-0.1,0.1-0.3,0.2-0.4c0.1-0.3,0.2-0.6,0.3-0.8
			c0.2-0.5,0.3-1,0.5-1.5c0.2-1,0.3-1.9,0.4-2.7c0-0.2,0-0.4,0-0.6c0-0.2,0-0.4,0-0.6c0-0.4-0.1-0.8-0.1-1.1
			c-0.1-0.7-0.2-1.4-0.4-2.1c-0.2-0.7-0.3-1.3-0.5-2c0-0.2-0.1-0.3-0.1-0.5c0-0.2-0.1-0.3-0.1-0.5c-0.1-0.4-0.2-0.7-0.2-1.1
			c-0.1-0.4-0.1-0.8-0.2-1.2c0-0.4-0.1-0.8-0.2-1.3c-0.1-0.9-0.2-1.9-0.3-3c0.2,1,0.5,2.1,0.8,3.3c0.2,0.6,0.3,1.2,0.5,1.8
			c0.2,0.6,0.4,1.3,0.5,1.9c0.1,0.6,0.3,1.3,0.4,1.9c0.1,0.6,0.3,1.2,0.4,1.8c0.2,1.2,0.4,2.2,0.5,3c0.1-0.7,0.1-1.6,0.2-2.5
			c0-0.4,0.1-0.9,0-1.4c0-0.5-0.1-1-0.1-1.5c0-0.5-0.1-1-0.1-1.5c-0.1-0.5-0.2-1-0.3-1.6c-0.1-0.5-0.2-1.1-0.3-1.6
			c-0.1-0.5-0.3-1.1-0.4-1.6c-0.1-0.5-0.3-1.1-0.4-1.6c-0.2-0.5-0.4-1-0.6-1.5c-0.2-0.5-0.3-1-0.6-1.5c-0.2-0.5-0.4-1-0.7-1.4
			c-0.1-0.2-0.2-0.5-0.3-0.7l-0.2-0.3l-0.2-0.3c-0.2-0.4-0.5-0.9-0.7-1.3c-0.2-0.4-0.4-0.8-0.6-1.2c-0.2-0.4-0.5-0.7-0.7-1.1
			c-0.3-0.4-0.5-0.8-0.7-1.2c-0.2-0.4-0.5-0.7-0.7-1c-0.5-0.6-0.8-1.1-1.2-1.5c-0.8-0.8-1.4-1.3-2.1-1.8c-0.7-0.4-1.4-0.8-2.2-1.3
			c-0.4-0.3-0.9-0.5-1.5-0.8c-0.3-0.1-0.6-0.3-0.9-0.5c-0.3-0.2-0.6-0.3-1-0.5c-0.3-0.2-0.9-0.4-1.7-0.6c-0.2-0.1-0.4-0.1-0.6-0.2
			c-0.2,0-0.5-0.1-0.7-0.1c-0.5-0.1-1-0.1-1.5-0.2c-0.5-0.1-1-0.1-1.5-0.1c-0.5,0-1-0.1-1.5-0.1c-0.4,0-0.7,0-1.1,0
			c-0.5,0-1,0-1.4,0C40.7,1.5,41.7,1.6,42.7,1.9"/>
	</defs>
	<clipPath id="SVGID_4_">
		<use xlink:href="#SVGID_3_"  style="overflow:visible;"/>
	</clipPath>
	
		<linearGradient id="SVGID_5_" gradientUnits="userSpaceOnUse" x1="-152.8862" y1="453.1104" x2="-151.8862" y2="453.1104" gradientTransform="matrix(47.1873 -47.1873 -47.1873 -47.1873 28608.248 14221.2715)">
		<stop  offset="0" style="stop-color:#08296C"/>
		<stop  offset="1" style="stop-color:#00ADEE"/>
	</linearGradient>
	<polygon class="st2" points="-28.9,31.9 35.5,-32.4 99.9,31.9 35.5,96.3 	"/>
</g>
</svg>
