<svg xmlns="http://www.w3.org/2000/svg" viewBox="0 0 436.99 139.05"><defs><style>.cls-1{fill:#fff;}</style></defs><title>Ресурс 1</title><g id="Слой_2" data-name="Слой 2"><g id="Шар_1" data-name="Шар 1"><path class="cls-1" d="M32.72,1.13C33.05-.38,35-.12,36.1.45,38,1.68,39.75,4,39,6.44c-1.08,3.21-3.14,6-4.54,9C28.17,28.74,21.65,41.93,16,55.52,12.47,65.59,7.26,75.31,6.48,86.14c-.4,5.49,9.93,1.43,12.44.7,7.27-2.29,14.56-4.57,21.6-7.51,2.63-1.09,5.08-2.58,7.8-3.45.87,3.83-2.32,6.85-5.53,8.23-8,3.56-16.23,6.52-24.48,9.4-3.09,1-6.45,2.23-9.72,1.19S1.8,91.9.6,88.47c-1.18-4-.44-8.19.72-12.06,1.54-5.1,3.1-10.22,5.07-15.17,4.89-11.47,9.91-22.89,15-34.28C24.91,18.25,29.65,10,32.72,1.13M198.52,11c1.7-1.28,3.89.44,4.32,2.21,1.05,4-1,7.77-2.55,11.29-5.06,10.07-11.1,19.63-16,29.81-2.52,5.53-5.87,10.7-7.69,16.53,4.08-5.3,7.42-11.16,11.91-16.15C192,51,195.28,47,199.61,44.25a6.69,6.69,0,0,1,6.94-.11,10,10,0,0,1,3.89,5.71c.68,3.77-1.45,7.19-2.47,10.7-1.65,5.46-4.14,10.71-4.91,16.4-.31,1.2.75,2.37,1.27,2.95,1.33.5,8.48-6.37,11.93-10.33a120.47,120.47,0,0,0,9.22-12.36,66.49,66.49,0,0,1,11.35-14.59c2.76-2.43,6.3-5.12,10.22-4,3.64.76,5.9,3.9,8.05,6.66,1.3-1.39,2.51-4.09,4.83-3.4,2,1.19,3.64,4.11,2.11,6.27-3.28,5.43-5.51,11.39-7.77,17.28-1.33,3.54-2.53,7.35-1.89,11.17.31,1.85,2.21,1.89,3.51,1.19a23.27,23.27,0,0,0,4.73-4c4.2-4.07,7.64-8.83,11.23-13.45a59.43,59.43,0,0,0,7-11.43c4.59-10.07,8.82-20.3,13.26-30.44a14.9,14.9,0,0,1,2.58-4.29c2-.57,3.48,1.37,4,3,.88,2-.51,4.05-1.17,5.94C292.74,33.61,288,44,283,54.32a38.54,38.54,0,0,0-1.47,3.93,79.84,79.84,0,0,1,14.9-12c4-2.5,8.5-5.3,13.46-4.5a4.16,4.16,0,0,1,3.4,4.33,26.4,26.4,0,0,0-10,3.29,73.87,73.87,0,0,0-13.73,10.28c-3.87,3.7-8,7.67-9.43,13-.55,2.05,1.49,3.72,3.3,4.14,3.32.68,6.62-.49,9.83-1.22,5.09-1.13,9.69-3.66,14.31-6,2.84-1.46,4.17-4.52,5.73-7.13C317,56.17,321.45,50,327.64,46c1.59-1,3.53-2.09,5.46-1.39,1.34,1,1.46,2.82,2,4.27A20.62,20.62,0,0,0,343,47.79c4-1.44,7.9-3.26,10.95-6.25,1-.74,2-2.19,3.43-1.81,1.72.45,3.71,1.86,3.55,3.87a13.79,13.79,0,0,1-1.41,4.6c-2.31,5.08-4.17,10.34-6.13,15.56-1.61,4.28-4.61,8.21-4.56,13a4.38,4.38,0,0,0,.32,1.76c.26.57.63,1.42,1.37,1.32a5.35,5.35,0,0,0,2.29-1.43A33.54,33.54,0,0,0,355.27,76a178.31,178.31,0,0,0,21.11-26.94c2.79-3.79,4.69-8.08,6.81-12.24,1.53,1.12,3.42,2.68,2.86,4.83-1.29,6.67-5.47,12.23-9.19,17.74A122,122,0,0,1,356.71,83c-1.78,1.37-4.25,2.92-6.49,1.68a10.32,10.32,0,0,1-5.53-9c.1-9.28,4.75-17.56,7.14-26.32a58.16,58.16,0,0,1-10.72,5.16,70.32,70.32,0,0,1-13.94,24.92c-2.74,3-5.75,6-9.46,7.77-3.05,1.54-6.43-.54-8.29-3-1.7-2-1.78-4.73-2-7.21-5.26,2.07-10.32,4.93-16,5.71-4,.38-8.38.33-11.71-2.19a12.08,12.08,0,0,1-4.35-6.28c-2.91,5.22-4,11.19-4.94,17-2.66-.83-5-3.29-4.65-6.24.68-4.28,2.75-8.17,3.82-12.35-3.36,3.37-6.33,7.35-10.84,9.27-3.66,1.89-8.88,1.07-10.9-2.79-2.83-5.07-.76-11,.3-16.26-6.28,7.77-12.93,15.36-20.93,21.42-2.16,1.59-5.68,1.68-7.45-.54-1.63-1.84-1.92-4.36-2.31-6.68-3.07,2.46-5.82,5.46-9.47,7.08a6.46,6.46,0,0,1-8-2.75,16.27,16.27,0,0,1-1.64-11.89c1.25-5.51,3.54-10.71,5.61-16,.72-1.73,2.23-4.42,1.38-5.43-.89-.6-4.93,3.35-7.16,5.28a227.83,227.83,0,0,0-26.12,32.83c-2.76-.3-4.64-3-4.75-5.63.12-2.6,1.55-4.87,2.36-7.29-2.67,2.36-4.75,5.33-7.66,7.42-4.27,3.18-8.86,6.6-14.37,6.95a10.63,10.63,0,0,1-9.86-5.63c-1.27-2.2-1.41-4.8-1.73-7.26-3.24,2.84-6.13,6.44-10.41,7.73a8.5,8.5,0,0,1-10.25-5.69,18.71,18.71,0,0,1,0-6.6c1.55-8.38,9.69-22.7,9.08-23.61-.77-1.15-9.93,8.38-14.4,13-4.64,4.64-8.67,9.82-13.16,14.59-2.73,2.89-4.78,6.33-7.3,9.37a2.41,2.41,0,0,1-3.71.14c-2.66-2.27-2.84-6.41-1.22-9.34,3.11-6,6.26-11.9,9.26-17.91,1.75-3.52,4.66-7.87,4.23-12-.16-1.5-13,3.09-14.13,3.45-.28,3.17-.13,6.49-1.5,9.44C80.47,62.49,77.14,67,74,71.48,70.51,76,66.49,80.79,60.9,82.67c-5.82-.07-10.61-6.12-9.6-11.83,1.86-10,7.11-19.12,14-26.52,2.18-2.17,4.7-4.52,7.94-4.7,2.47-.13,4.33,1.73,6.22,3,4.85-.38,9.28-2.73,14.14-3a9.91,9.91,0,0,1,8.51,4.64,7.92,7.92,0,0,1,.43,7.71c-2.34,5.28-5.3,10.26-7.47,15.61,6.52-7.13,12.54-14.78,19.88-21.11,2.65-2.18,5.21-5.08,8.83-5.45,3.42.14,6.31,3,7.06,6.28,0,2.7-1.7,5-2.68,7.39-2.72,6.74-6.67,13.76-7,21.19-.11,2.24,2.11,2.29,3.59,1.39,6.82-4.22,11.24-11.13,15.91-17.44,2.93-3.83,5.28-8.17,8.88-11.45,3.15-3,6.74-6.14,11.28-6.59,4.17-.33,7.48,3.57,8.19,7.38.47,3.68-1.89,7-4.33,9.46a3,3,0,0,1-3.38.62c-1.25-.83-1-2.63-.6-3.84,1-3,3.74-5.54,3.47-9-3.52-.5-6.39,1.82-8.62,4.24-5.55,5.57-9.34,12.65-12.14,19.94a18.63,18.63,0,0,0-1.28,10c.37,2.24,3.13,3.36,5.12,2.55,7.06-2.26,12.19-7.91,17.29-13a89.85,89.85,0,0,0,18-25.87c4.33-9.66,9.44-19,13.82-28.6A30.26,30.26,0,0,1,198.52,11m36.89,43.12c-3.3,4.82-6.28,9.86-9.11,15a52.83,52.83,0,0,0-2.6,5.33,20.67,20.67,0,0,0-1.16,3.21,3.82,3.82,0,0,0-.19,2.15c.43.9,1.83-.34,2.35-.65A8.93,8.93,0,0,0,226.43,78C235,70,242.18,60.78,249.83,52c.93-1.25,2.66-2.79,1.35-4.4-1.27-1.89-3.36-4.51-5.93-3.3-4.32,2-7.18,6.07-9.84,9.87M64.68,56.05c-3,5-6.14,10.12-7.42,15.9-.35,1.6-.86,3.94,0,5.47C58.59,80,62.09,76,63.15,74.88c6.28-7.39,14.8-23.14,15.08-24.9.33-2.05-.57-5.33-2.65-5.53-2.47-.24-8,7.16-10.89,11.6m255.64,7.18c-3,4.88-5.91,9.95-7.37,15.54a6.29,6.29,0,0,0,.52,4.71c.65,1,7.21-5.82,7.7-6.44,5.43-6.84,11.63-13.76,13.72-22.37.24-1-1.94-4.68-2.95-4.72-1.18-.05-8.32,8.43-11.61,13.29m76.26-20.51c2.53-2.42,5.79-4.74,9.49-4.28,3.94.71,6.74,3.86,9.22,6.76.94-1.17,1.53-3,3.16-3.35,2.59-.35,4.33,2.5,4.16,4.8-.65,2.39-2.22,4.38-3.25,6.6-3.19,6.78-6.7,13.69-7.34,21.27a3.84,3.84,0,0,0,.83,3c1.45,1.67,3.64-.09,4.89-1a28.18,28.18,0,0,0,4.52-4.31c.78-.89,1.53-1.81,2.28-2.72,4.35-5.18,8.35-10.63,12.34-16.09,0,3,.39,6.13-.21,9.13-.92,2.15-2.66,3.8-4,5.71-3.29,4.65-6.84,9.27-11.55,12.57-2.92,2.06-7,2.8-10.26,1.13-2.73-1.48-4-4.65-4.35-7.58-.59-4,.9-7.8,1.79-11.6-2.8,2.89-4.91,6.37-7.77,9.22-3.29,3.28-6.41,6.73-9.94,9.75-2,1.57-4,3.69-6.68,3.67-3,.32-5.06-2.55-6-5-1.68-4.7,1-9.35,2.64-13.65,4.26-8.65,9.11-17.25,16.06-24m1,8.43c-6,7.21-10.09,15.73-14.17,24.1a13.43,13.43,0,0,0-1.2,3.26c-.3,1.58.62,1.79,1.87,1a21.16,21.16,0,0,0,3.14-2.51c1.7-1.54,3.23-3.26,4.89-4.84,6.49-6.69,12.31-14,18.21-21.18.44-.72,1.23-1.45,1.11-2.37-.78-2.22-2.77-3.67-4.76-4.73C402.82,45,400.14,48.21,397.62,51.16Z"/><path class="cls-1" d="M231.8,115.36a2.6,2.6,0,0,0,.68-1.05q.15-.45.43-.45a.52.52,0,0,1,.34.19q.13.68.38,2.73l.45,3.54q0,.34-.41.34-.23,0-.4-.38a10.28,10.28,0,0,0-3-4.1,6.56,6.56,0,0,0-4.27-1.62,4.24,4.24,0,0,0-3.43,1.37,4.46,4.46,0,0,0-1.16,2.92,3.45,3.45,0,0,0,1.26,2.88,18.59,18.59,0,0,0,5.19,2.26,21.76,21.76,0,0,1,4.34,1.75,7.21,7.21,0,0,1,2.42,2.37,6,6,0,0,1,1,3.27,7.2,7.2,0,0,1-2.47,5.33,8.42,8.42,0,0,1-6,2.35,12.24,12.24,0,0,1-6.47-2,2.38,2.38,0,0,0-.83,1.24q-.15.6-.49.6t-.43-.77q-.13-.77-.55-7.3.08-.23.4-.23t.45.41q2.9,7.28,8.09,7.28a5.27,5.27,0,0,0,4-1.55,5.06,5.06,0,0,0,1.46-3.57,4.51,4.51,0,0,0-.78-2.56,5.87,5.87,0,0,0-2.07-1.88,24,24,0,0,0-4.07-1.6,16.71,16.71,0,0,1-4.87-2.17,6.47,6.47,0,0,1-1.89-2.31,5.88,5.88,0,0,1-.6-2.49,5.73,5.73,0,0,1,2.27-4.44,8.26,8.26,0,0,1,5.56-1.94,9.37,9.37,0,0,1,2.61.4A14.36,14.36,0,0,1,231.8,115.36Z"/><path class="cls-1" d="M248.72,115.06q-1.47-.08-2.07-.08-4.07,0-5.89,1.7a6.6,6.6,0,0,0-2.13,3q-.09.47-.51.47a.49.49,0,0,1-.36-.18,51.62,51.62,0,0,1,.73-6l1.15,0q1.47,0,3.93.15,2.65.15,8.13.15t7.3-.13q1.54-.15,4.23-.15a24.94,24.94,0,0,1,.3,2.82q.11,1.68.23,2.35a2.58,2.58,0,0,1,0,.32q0,.45-.39.45a.54.54,0,0,1-.4-.16,8.9,8.9,0,0,1-.72-1.06,8.62,8.62,0,0,0-2-2.31,5.48,5.48,0,0,0-2.35-1,43,43,0,0,0-5.25-.3q-.23,2.84-.23,6.49,0,12.08.52,14.25t3.7,2.16q.77,0,.77.32t-.73.38H245.09q-.45,0-.45-.36t.88-.36a3.24,3.24,0,0,0,3.45-3.11q.14-1.43.14-8.26Q249.12,120.74,248.72,115.06Z"/><path class="cls-1" d="M279.21,125.78a51,51,0,0,0,3.21-4.22q2.16-3,2.54-3.79a2.8,2.8,0,0,0,.39-1.18,1.39,1.39,0,0,0-.78-1.23,3.1,3.1,0,0,0-1.59-.46q-.64,0-.64-.34t1.07-.36h7.1q1,0,1,.4t-.43.32a4.75,4.75,0,0,0-2.14.51,8.82,8.82,0,0,0-2.49,2.28l-3.27,4.42a30.8,30.8,0,0,0-2.79,4.07,20.54,20.54,0,0,0-.3,4.69q0,5,.42,6t2.74,1.15q.6.06.6.38t-.66.38l-5.07-.11q-1.83,0-3,.08-.94.07-1.21.08-.72,0-.72-.38t.53-.32a2.54,2.54,0,0,0,2.42-1.36,9.19,9.19,0,0,0,.61-3.78,23.48,23.48,0,0,0-.34-4.44,19.22,19.22,0,0,0-1.62-3.08q-1.54-2.64-3.77-5.85a19.52,19.52,0,0,0-3.19-3.91,3.73,3.73,0,0,0-1.86-.77q-.68-.06-.68-.38a.26.26,0,0,1,.18-.27,4.65,4.65,0,0,1,1.06-.07h8.22a4.93,4.93,0,0,1,1,.06q.17.06.17.3t-.47.34q-2.37.19-2.37,1.43a4.57,4.57,0,0,0,.87,2Q274.81,119.72,279.21,125.78Z"/><path class="cls-1" d="M314.07,138.75l-1.05,0q-.7,0-2.52-.07t-7.59-.07h-4.78l-1.92.09q-1.66.09-2,.09-1.43,0-1.43-.38t.56-.32a4.12,4.12,0,0,0,2.54-.78,3.55,3.55,0,0,0,1-1.92,48.29,48.29,0,0,0,.26-6.77l0-6.74a24.12,24.12,0,0,0-.29-4.58,3.28,3.28,0,0,0-1.2-2,3.88,3.88,0,0,0-2.06-.78q-.6-.06-.6-.41t.55-.35l.49,0q3,.19,7,.19l3.31-.06q.51,0,.51.38t-.55.34a4.33,4.33,0,0,0-2.23.53,2.7,2.7,0,0,0-1.19,1.21,8,8,0,0,0-.29,2.68l-.15,8.9,0,5a14,14,0,0,0,.2,3,2.64,2.64,0,0,0,.82,1.25,3.45,3.45,0,0,0,2.26.56l3.37-.11a7.78,7.78,0,0,0,4.63-2.52,13,13,0,0,0,2.73-3.88q.21-.49.5-.49t.32.45q0,.53-.54,3.77T314.07,138.75Z"/><path class="cls-1" d="M318.25,113.83l3.43.08,5.26-.08q.94,0,.94.38t-.51.36q-2.09.26-2.61,1.51t-.52,9.18q0,2.92.15,6.57a32.24,32.24,0,0,0,.34,4.37,2.25,2.25,0,0,0,.72,1.17,3.92,3.92,0,0,0,2,.64q.47.06.47.36t-.43.34l-4.68,0-4,.06q-.66,0-.66-.38t.53-.4q1.75,0,2.05-1.17a45.37,45.37,0,0,0,.3-7.21q0-5.87-.1-9.5t-.61-4.44a2.56,2.56,0,0,0-1.92-1q-.53-.09-.53-.43T318.25,113.83Z"/><path class="cls-1" d="M345,115.36a2.6,2.6,0,0,0,.68-1.05q.15-.45.43-.45a.52.52,0,0,1,.34.19q.13.68.38,2.73l.45,3.54q0,.34-.41.34-.23,0-.4-.38a10.28,10.28,0,0,0-3-4.1,6.56,6.56,0,0,0-4.27-1.62,4.24,4.24,0,0,0-3.43,1.37,4.46,4.46,0,0,0-1.16,2.92,3.45,3.45,0,0,0,1.26,2.88,18.59,18.59,0,0,0,5.19,2.26,21.76,21.76,0,0,1,4.34,1.75,7.21,7.21,0,0,1,2.42,2.37,6,6,0,0,1,1,3.27,7.2,7.2,0,0,1-2.47,5.33,8.42,8.42,0,0,1-6,2.35,12.24,12.24,0,0,1-6.47-2,2.38,2.38,0,0,0-.83,1.24q-.15.6-.49.6t-.43-.77q-.13-.77-.55-7.3.08-.23.4-.23t.45.41q2.9,7.28,8.09,7.28a5.27,5.27,0,0,0,4-1.55,5.06,5.06,0,0,0,1.46-3.57,4.51,4.51,0,0,0-.78-2.56,5.87,5.87,0,0,0-2.07-1.88,24,24,0,0,0-4.07-1.6,16.71,16.71,0,0,1-4.87-2.17,6.47,6.47,0,0,1-1.89-2.31,5.88,5.88,0,0,1-.6-2.49A5.73,5.73,0,0,1,334,115.7a8.26,8.26,0,0,1,5.56-1.94,9.37,9.37,0,0,1,2.61.4A14.36,14.36,0,0,1,345,115.36Z"/><path class="cls-1" d="M362,115.06q-1.47-.08-2.07-.08-4.07,0-5.89,1.7a6.59,6.59,0,0,0-2.13,3q-.09.47-.51.47A.49.49,0,0,1,351,120a51.62,51.62,0,0,1,.73-6l1.15,0q1.47,0,3.93.15,2.65.15,8.13.15t7.3-.13q1.54-.15,4.23-.15a24.94,24.94,0,0,1,.3,2.82q.11,1.68.23,2.35a2.58,2.58,0,0,1,0,.32q0,.45-.39.45a.54.54,0,0,1-.4-.16,9,9,0,0,1-.72-1.06,8.64,8.64,0,0,0-2-2.31,5.48,5.48,0,0,0-2.35-1,43,43,0,0,0-5.25-.3q-.23,2.84-.23,6.49,0,12.08.52,14.25t3.7,2.16q.77,0,.77.32t-.73.38H358.34q-.45,0-.45-.36t.88-.36a3.24,3.24,0,0,0,3.45-3.11q.14-1.43.14-8.26Q362.36,120.74,362,115.06Z"/></g></g></svg>