<?xml version="1.0" encoding="utf-8"?>
<!-- Generator: Adobe Illustrator 24.0.0, SVG Export Plug-In . SVG Version: 6.00 Build 0)  -->
<svg version="1.1" id="Слой_1" xmlns:serif="http://www.serif.com/"
	 xmlns="http://www.w3.org/2000/svg" xmlns:xlink="http://www.w3.org/1999/xlink" x="0px" y="0px" viewBox="0 0 7187.6 2881.8"
	 style="enable-background:new 0 0 7187.6 2881.8;" xml:space="preserve">
<style type="text/css">
	.st0{clip-path:url(#SVGID_2_);fill:#FFFFFF;}
	.st1{clip-path:url(#SVGID_4_);fill-rule:evenodd;clip-rule:evenodd;fill:url(#SVGID_5_);}
	.st2{clip-path:url(#SVGID_7_);fill-rule:evenodd;clip-rule:evenodd;fill:url(#SVGID_8_);}
	.st3{clip-path:url(#SVGID_10_);fill-rule:evenodd;clip-rule:evenodd;fill:url(#SVGID_11_);}
	.st4{clip-path:url(#SVGID_13_);fill:url(#SVGID_14_);}
	.st5{fill:#FFFFFF;}
</style>
<g>
	<g>
		<g>
			<defs>
				<path id="SVGID_1_" d="M1931.7,660.1l-624.5-348c-133.7-74.6-295.8-74.6-429.6,0l-624.5,348C110.5,739.6,21.8,891.6,21.8,1056.7
					V1749c0,161.9,85.2,311.4,223.6,392.2l624.5,364.7c137.7,80.4,307.3,80.4,445,0l624.5-364.7c138.3-80.8,223.6-230.3,223.6-392.2
					v-692.3C2163,891.6,2074.4,739.7,1931.7,660.1z M958.7,2244.4L958.7,2244.4L379.1,1906c-55.3-32.3-89.4-92.1-89.4-156.9v-632
					L868.9,1424c55.3,29.3,89.9,86.8,89.9,149.4v671H958.7z M941.9,1176.1L417.2,878.4l589.3-328.5c53.6-29.7,118.3-29.7,171.9,0.1
					l609,339.4l-548.3,290.9C1145.6,1229.8,1033.9,1228.3,941.9,1176.1z M1895.4,1749.1c0,64.8-34.1,124.6-89.4,156.8l-579.6,338.4
					v-667.4c0-64,36.2-122.6,93.5-151.2l575.6-287.3v610.7L1895.4,1749.1L1895.4,1749.1z"/>
			</defs>
			<clipPath id="SVGID_2_">
				<use xlink:href="#SVGID_1_"  style="overflow:visible;"/>
			</clipPath>
			<rect x="-164.5" y="117.3" class="st0" width="2621.8" height="2621.8"/>
		</g>
		<g>
			<defs>
				<path id="SVGID_3_" d="M1931.7,660.1l-624.5-348c-133.7-74.6-295.8-74.6-429.6,0l-624.5,348C110.5,739.6,21.8,891.6,21.8,1056.7
					V1749c0,161.9,85.2,311.4,223.6,392.2l624.5,364.7c137.7,80.4,307.3,80.4,445,0l624.5-364.7c138.3-80.8,223.6-230.3,223.6-392.2
					v-692.3C2163,891.6,2074.4,739.7,1931.7,660.1z M958.7,2244.4L958.7,2244.4L379.1,1906c-55.3-32.3-89.4-92.1-89.4-156.9v-632
					L868.9,1424c55.3,29.3,89.9,86.8,89.9,149.4v671H958.7z M941.9,1176.1L417.2,878.4l589.3-328.5c53.6-29.7,118.3-29.7,171.9,0.1
					l609,339.4l-548.3,290.9C1145.6,1229.8,1033.9,1228.3,941.9,1176.1z M1895.4,1749.1c0,64.8-34.1,124.6-89.4,156.8l-579.6,338.4
					v-667.4c0-64,36.2-122.6,93.5-151.2l575.6-287.3v610.7L1895.4,1749.1L1895.4,1749.1z"/>
			</defs>
			<clipPath id="SVGID_4_">
				<use xlink:href="#SVGID_3_"  style="overflow:visible;"/>
			</clipPath>
			
				<linearGradient id="SVGID_5_" gradientUnits="userSpaceOnUse" x1="-2342.6165" y1="9815.8594" x2="-4161.9526" y2="11851.1602" gradientTransform="matrix(0.6774 0 0 -0.6774 3400.4023 8821.2012)">
				<stop  offset="0" style="stop-color:#C519FF"/>
				<stop  offset="0.2769" style="stop-color:#B213FF;stop-opacity:0.7231"/>
				<stop  offset="0.8381" style="stop-color:#8005FF;stop-opacity:0.1619"/>
				<stop  offset="1" style="stop-color:#7000FF;stop-opacity:0"/>
			</linearGradient>
			<rect x="4.5" y="200.2" class="st1" width="2286.9" height="2454.2"/>
		</g>
	</g>
	<g>
		<g>
			<defs>
				<path id="SVGID_6_" d="M1931.7,660.1l-624.5-348c-133.7-74.6-295.8-74.6-429.6,0l-624.5,348C110.5,739.6,21.8,891.6,21.8,1056.7
					V1749c0,161.9,85.2,311.4,223.6,392.2l624.5,364.7c137.7,80.4,307.3,80.4,445,0l624.5-364.7c138.3-80.8,223.6-230.3,223.6-392.2
					v-692.3C2163,891.6,2074.4,739.7,1931.7,660.1z M958.7,2244.4L958.7,2244.4L379.1,1906c-55.3-32.3-89.4-92.1-89.4-156.9v-632
					L868.9,1424c55.3,29.3,89.9,86.8,89.9,149.4v671H958.7z M941.9,1176.1L417.2,878.4l589.3-328.5c53.6-29.7,118.3-29.7,171.9,0.1
					l609,339.4l-548.3,290.9C1145.6,1229.8,1033.9,1228.3,941.9,1176.1z M1895.4,1749.1c0,64.8-34.1,124.6-89.4,156.8l-579.6,338.4
					v-667.4c0-64,36.2-122.6,93.5-151.2l575.6-287.3v610.7L1895.4,1749.1L1895.4,1749.1z"/>
			</defs>
			<clipPath id="SVGID_7_">
				<use xlink:href="#SVGID_6_"  style="overflow:visible;"/>
			</clipPath>
			
				<linearGradient id="SVGID_8_" gradientUnits="userSpaceOnUse" x1="10544.9121" y1="-4500.3643" x2="10545.9121" y2="-4500.3643" gradientTransform="matrix(-1406.1476 708.5646 -708.5646 -1406.1476 11640943 -13798950)">
				<stop  offset="0" style="stop-color:#00CEFF"/>
				<stop  offset="1" style="stop-color:#00D5FF;stop-opacity:0"/>
			</linearGradient>
			<rect x="4.5" y="200.2" class="st2" width="2286.9" height="2454.2"/>
		</g>
	</g>
	<g>
		<g>
			<defs>
				<path id="SVGID_9_" d="M1931.7,660.1l-624.5-348c-133.7-74.6-295.8-74.6-429.6,0l-624.5,348C110.5,739.6,21.8,891.6,21.8,1056.7
					V1749c0,161.9,85.2,311.4,223.6,392.2l624.5,364.7c137.7,80.4,307.3,80.4,445,0l624.5-364.7c138.3-80.8,223.6-230.3,223.6-392.2
					v-692.3C2163,891.6,2074.4,739.7,1931.7,660.1z M958.7,2244.4L958.7,2244.4L379.1,1906c-55.3-32.3-89.4-92.1-89.4-156.9v-632
					L868.9,1424c55.3,29.3,89.9,86.8,89.9,149.4v671H958.7z M941.9,1176.1L417.2,878.4l589.3-328.5c53.6-29.7,118.3-29.7,171.9,0.1
					l609,339.4l-548.3,290.9C1145.6,1229.8,1033.9,1228.3,941.9,1176.1z M1895.4,1749.1c0,64.8-34.1,124.6-89.4,156.8l-579.6,338.4
					v-667.4c0-64,36.2-122.6,93.5-151.2l575.6-287.3v610.7L1895.4,1749.1L1895.4,1749.1z"/>
			</defs>
			<clipPath id="SVGID_10_">
				<use xlink:href="#SVGID_9_"  style="overflow:visible;"/>
			</clipPath>
			
				<radialGradient id="SVGID_11_" cx="-3389.3899" cy="10732.6445" r="1190.5508" gradientTransform="matrix(0.6774 0 0 -0.6774 3400.4023 8821.2012)" gradientUnits="userSpaceOnUse">
				<stop  offset="0" style="stop-color:#9D1EF8"/>
				<stop  offset="1" style="stop-color:#7000FF;stop-opacity:0"/>
			</radialGradient>
			<rect x="82.6" y="58.6" class="st3" width="2024.5" height="2871.5"/>
		</g>
	</g>
	<g>
		<g>
			<defs>
				<path id="SVGID_12_" d="M1931.7,660.1l-624.5-348c-133.7-74.6-295.8-74.6-429.6,0l-624.5,348
					C110.5,739.6,21.8,891.6,21.8,1056.7V1749c0,161.9,85.2,311.4,223.6,392.2l624.5,364.7c137.7,80.4,307.3,80.4,445,0l624.5-364.7
					c138.3-80.8,223.6-230.3,223.6-392.2v-692.3C2163,891.6,2074.4,739.7,1931.7,660.1z M958.7,2244.4L958.7,2244.4L379.1,1906
					c-55.3-32.3-89.4-92.1-89.4-156.9v-632L868.9,1424c55.3,29.3,89.9,86.8,89.9,149.4v671H958.7z M941.9,1176.1L417.2,878.4
					l589.3-328.5c53.6-29.7,118.3-29.7,171.9,0.1l609,339.4l-548.3,290.9C1145.6,1229.8,1033.9,1228.3,941.9,1176.1z M1895.4,1749.1
					c0,64.8-34.1,124.6-89.4,156.8l-579.6,338.4v-667.4c0-64,36.2-122.6,93.5-151.2l575.6-287.3v610.7L1895.4,1749.1L1895.4,1749.1z
					"/>
			</defs>
			<clipPath id="SVGID_13_">
				<use xlink:href="#SVGID_12_"  style="overflow:visible;"/>
			</clipPath>
			
				<linearGradient id="SVGID_14_" gradientUnits="userSpaceOnUse" x1="10530.5127" y1="-4512.0557" x2="10531.7666" y2="-4512.0557" gradientTransform="matrix(1154.7253 305.8842 -305.8842 1154.7253 -13540170 1989726)">
				<stop  offset="0" style="stop-color:#FFCD44"/>
				<stop  offset="0.5" style="stop-color:#FFCD44;stop-opacity:0.9"/>
				<stop  offset="1" style="stop-color:#FFCD44;stop-opacity:0"/>
			</linearGradient>
			<path class="st4" d="M-516.7,2239.5L-644.3,515.1l2098-1517l779.1,1810.2L1038,3059.9L-516.7,2239.5L-516.7,2239.5z"/>
		</g>
	</g>
</g>
<path class="st5" d="M3055.3,366.7c71.4,0,118.3,53,118.3,132.6V793h107.1V495.2c0-73.4,56.1-128.5,128.6-128.5
	c71.4,0,118.3,53,118.3,132.6V793h107.1V495.2c0-138.7-87.7-235.6-219.3-235.6c-73.4,0-137.7,30.6-180.5,80.6
	c-37.7-51-93.9-80.6-161.2-80.6c-57.1,0-110.2,21.4-146.9,61.2v-47.9h-107.1v520.2h107.1V495.3
	C2926.8,421.7,2983,366.7,3055.3,366.7L3055.3,366.7z M3999.7,806.3c69.4,0,137.7-28.5,176.5-70.4V793h107.1V272.8h-107.1v57.1
	c-38.7-41.8-107.1-70.4-176.5-70.4c-143.8,0-268.3,123.4-268.3,273.3C3731.4,682.8,3855.9,806.3,3999.7,806.3L3999.7,806.3z
	 M4011.9,699.2c-94.8,0-165.2-69.4-165.2-166.2s70.4-166.2,165.2-166.2c94.9,0,165.2,69.4,165.2,166.2S4106.8,699.2,4011.9,699.2z
	 M4527.6,272.8h-107.1V793h107.1V272.8z M4548,116.7c0-37.7-31.6-73.4-73.4-73.4c-39.8,0-74.5,32.7-74.5,73.4
	c0,41.8,34.7,74.5,74.5,74.5C4516.5,191.2,4548,155.5,4548,116.7z M4777.7,58.6h-107.1V793h107.1V58.6L4777.7,58.6z M5037.9,733.8
	c0-37.7-31.6-73.4-73.4-73.4c-39.8,0-74.5,32.7-74.5,73.4c0,41.8,34.7,74.5,74.5,74.5C5006.2,808.3,5037.9,772.6,5037.9,733.8z
	 M5414.9,374.8h40.8v-102h-40.8c-76.5,0-123.4,21.4-163.2,71.4v-71.4h-107.1V793h107.1V537C5251.7,439,5315.9,374.8,5414.9,374.8z
	 M5766.5,699.2c-76.5,0-127.5-53-127.5-137.7V272.8h-107.1v294.8c0,141.7,86.7,238.7,217.3,238.7c62.2,0,118.3-22.4,159.1-65.3v52
	h107.1V272.8h-107.1v292.7C5908.2,638.9,5847.1,699.2,5766.5,699.2z M3218.5,1634.4c-39.8,57.1-91.8,84.7-148.9,84.7
	c-93.8,0-165.2-71.4-165.2-166.2c0-94.9,71.4-166.2,165.2-166.2c61.2,0,108.1,30.6,143.8,76.5l81.6-60.2
	c-50-77.5-133.6-123.4-227.5-123.4c-154,0-278.4,123.4-278.4,273.3s124.4,273.3,278.4,273.3c98,0,186.7-51,234.6-135.6
	L3218.5,1634.4L3218.5,1634.4z M3500.7,1078.5h-107.1v734.4h107.1V1078.5z M3723.2,1552.9c0-93.8,72.4-166.2,163.2-166.2
	s163.2,72.4,163.2,166.2s-72.4,166.2-163.2,166.2S3723.2,1646.7,3723.2,1552.9z M4164.9,1552.9c0-149.9-124.4-273.3-278.4-273.3
	s-278.4,123.4-278.4,273.3s124.4,273.3,278.4,273.3S4164.9,1702.8,4164.9,1552.9z M4496.5,1719.1c-76.5,0-127.5-53-127.5-137.7
	v-288.7h-107.1v294.8c0,141.7,86.7,238.7,217.3,238.7c62.2,0,118.3-22.4,159.1-65.2v52h107.1v-520.2h-107.1v292.7
	C4638.3,1658.9,4577.1,1719.1,4496.5,1719.1z M5115.3,1826.2c69.4,0,137.7-28.5,176.5-70.4v57.1h107.1v-734.4h-107.1v271.3
	c-38.7-41.8-107.1-70.4-176.5-70.4c-143.8,0-268.3,123.4-268.3,273.3C4847,1702.8,4971.5,1826.2,5115.3,1826.2z M5127.5,1719.1
	c-94.8,0-165.2-69.4-165.2-166.2s70.4-166.2,165.2-166.2c94.8,0,165.2,69.4,165.2,166.2S5222.4,1719.1,5127.5,1719.1z
	 M2919.7,2444.3c0-28.5,33.7-42.8,81.6-42.8c54.1,0,109.1,17.3,142.8,43.8l64.3-80.6c-52-41.8-125.5-65.2-199.9-65.2
	c-120.4,0-200.9,62.2-200.9,154c0,74.5,52,126.5,162.2,158.1c101,28.5,137.7,47.9,137.7,79.6c0,32.7-37.7,53-93.9,53
	c-61.2,0-119.3-24.5-165.2-70.4l-69.4,83.7c55.1,53,137.7,88.7,229.5,88.7c125.5,0,211.2-66.3,211.2-164.2
	c0-80.6-57.1-132.6-175.5-165.2C2950.3,2490.2,2919.7,2470.8,2919.7,2444.3L2919.7,2444.3z M3406.5,2572.8
	c0-93.8,72.4-166.2,163.2-166.2s163.2,72.4,163.2,166.2c0,93.8-72.4,166.2-163.2,166.2S3406.5,2666.6,3406.5,2572.8z M3848.1,2572.8
	c0-149.9-124.4-273.3-278.4-273.3s-278.4,123.4-278.4,273.3s124.4,273.3,278.4,273.3C3723.6,2846.2,3848.1,2722.7,3848.1,2572.8z
	 M4062.5,2098.5h-107.1v734.3h107.1V2098.5z M4429.8,2739.1c-76.5,0-127.5-53-127.5-137.7v-288.7h-107.1v294.8
	c0,141.8,86.7,238.7,217.3,238.7c62.2,0,118.3-22.4,159.1-65.3v52h107.1v-520.2h-107.1v292.7
	C4571.6,2678.9,4510.4,2739.1,4429.8,2739.1L4429.8,2739.1z M4963.9,2312.8v-214.3h-107.1v214.2h-107.1v102h107.1v238.7
	c0,115.2,74.5,192.8,185.6,192.8c64.3,0,119.4-25.5,154-62.2l-58.1-77.5c-22.4,18.4-57.1,32.7-89.8,32.7c-50,0-84.7-34.7-84.7-86.7
	v-237.6h163.3v-102L4963.9,2312.8L4963.9,2312.8z M5359.4,2312.8h-107.1V2833h107.1V2312.8z M5379.8,2156.7
	c0-37.7-31.6-73.4-73.4-73.4c-39.8,0-74.5,32.7-74.5,73.4c0,41.8,34.7,74.5,74.5,74.5C5348.1,2231.1,5379.8,2195.4,5379.8,2156.7z
	 M5581.9,2572.8c0-93.8,72.4-166.2,163.2-166.2s163.2,72.4,163.2,166.2c0,93.8-72.4,166.2-163.2,166.2S5581.9,2666.6,5581.9,2572.8z
	 M6023.5,2572.8c0-149.9-124.4-273.3-278.4-273.3s-278.4,123.4-278.4,273.3s124.4,273.3,278.4,273.3
	C5899,2846.2,6023.5,2722.7,6023.5,2572.8z M6374.6,2406.6c76.5,0,127.5,53,127.5,137.7V2833h107.1v-294.8
	c0-141.7-86.7-238.7-217.3-238.7c-62.2,0-118.3,22.4-159.1,65.2v-52h-107.1v520.2h107.1v-292.7
	C6232.8,2466.7,6294,2406.6,6374.6,2406.6z M6836.3,2444.3c0-28.5,33.6-42.8,81.6-42.8c54.1,0,109.1,17.3,142.7,43.8l64.3-80.6
	c-52-41.8-125.5-65.2-199.9-65.2c-120.4,0-200.9,62.2-200.9,154c0,74.5,52,126.5,162.1,158.1c101,28.5,137.7,47.9,137.7,79.6
	c0,32.7-37.7,53-93.8,53c-61.2,0-119.4-24.5-165.2-70.4l-69.4,83.7c55.1,53,137.7,88.7,229.5,88.7c125.5,0,211.2-66.3,211.2-164.2
	c0-80.6-57.1-132.6-175.5-165.2C6866.8,2490.2,6836.3,2470.8,6836.3,2444.3L6836.3,2444.3z"/>
</svg>
