<svg version="1.1" id="Layer_1" xmlns="http://www.w3.org/2000/svg" xmlns:xlink="http://www.w3.org/1999/xlink" x="0px" y="0px" width="331.5px" height="161.4px" viewBox="0 0 331.5 161.4" style="enable-background:new 0 0 331.5 161.4;" fill="#fff" xml:space="preserve">
<g>
	<polygon points="117,143.3 96.8,143.3 96.8,129.9 94.8,129.9 94.8,160.9 96.8,160.9 96.8,145.2 117,145.2 117,160.9 
		119,160.9 119,129.9 117,129.9 	"></polygon>
	<path d="M144.6,129.4c-4.4,0-8,1.5-11,4.6c-2.9,3-4.4,6.9-4.4,11.4c0,4.6,1.5,8.4,4.4,11.4c3,3,6.6,4.6,11,4.6
		c4.4,0,8-1.5,11-4.6c3-3,4.4-6.9,4.4-11.4c0-4.6-1.5-8.4-4.4-11.4C152.6,130.9,149,129.4,144.6,129.4z M154.1,155.4
		c-2.6,2.7-5.7,4-9.5,4c-3.8,0-6.9-1.3-9.5-4c-2.6-2.7-3.8-6-3.8-10c0-4,1.3-7.3,3.8-10c2.6-2.7,5.7-4,9.5-4c3.8,0,6.9,1.3,9.5,4
		c2.6,2.7,3.8,6,3.8,10C157.9,149.4,156.6,152.7,154.1,155.4z"></path>
	<path d="M192.3,147.6c0,7.4-3.9,11.8-10.3,11.8c-6.4,0-10.3-4.4-10.3-11.8v-17.7h-2v17.7c0,4.4,1.1,7.8,3.4,10.2
		c2.3,2.4,5.3,3.6,9,3.6c3.7,0,6.7-1.2,8.9-3.6c2.3-2.4,3.4-5.8,3.4-10.2v-17.7h-2V147.6z"></path>
	<path d="M220.7,145.9c-1.1-0.5-1.9-0.9-2.7-1.1l-3-0.9l-0.9-0.3l-2.1-0.6c-0.5-0.1-1.1-0.4-1.9-0.7
		c-0.8-0.3-1.3-0.6-1.7-0.8c-1.2-0.9-2.7-2.3-2.5-4.3c0-3.2,2.8-5.7,8.3-5.7c3.4,0,6.5,0.9,9.3,2.8V132c-2.7-1.7-5.8-2.6-9.4-2.6
		c-3.2,0-5.7,0.8-7.6,2.2c-1.8,1.5-2.7,3.3-2.7,5.4c0.2,3.3,1.3,5,4.1,6.4c1,0.5,1.9,0.8,2.7,1.1l3.3,1c1.3,0.4,2.3,0.6,2.9,0.8
		c0.7,0.2,1.5,0.5,2.5,1c0.9,0.4,1.6,0.8,2.1,1.3c0.9,0.9,1.8,2.3,1.8,4.1c0,2-0.9,3.7-2.6,4.9c-1.7,1.2-3.9,1.8-6.6,1.8
		c-2.3,0-4.4-0.4-6.4-1.1c-2-0.8-3.5-1.6-4.7-2.6v2.3c2.3,1.8,6.7,3.3,11.3,3.3c3.1,0,5.7-0.8,7.9-2.3c2.2-1.5,3.2-3.7,3.2-6.4
		c0-2.3-1-4.2-2.1-5.3C222.5,146.9,221.7,146.4,220.7,145.9z"></path>
	<polygon points="237.1,145.2 252.5,145.2 252.5,143.3 237.1,143.3 237.1,131.8 255.8,131.8 255.8,129.9 235.1,129.9 
		235.1,160.9 256.5,160.9 256.5,159 237.1,159 	"></polygon>
	<path d="M51.9,0C22.7,0,0,22.8,0,51.6c0,28.8,22.7,51.5,51.9,51.5c29.3,0,51.9-22.7,51.9-51.5
		C103.8,22.8,81.2,0,51.9,0z M51.9,97.1c-25.8,0-45-20-45-45.5C6.9,26,26.1,6,51.9,6c25.8,0,45,20,45,45.6
		C96.9,77.1,77.7,97.1,51.9,97.1z"></path>
	<polygon points="331.5,7.3 331.5,1.4 283.5,1.4 283.5,101.4 331.5,101.4 331.5,95.4 290.1,95.4 290.1,49.7 330.6,49.7 
		330.6,43.7 290.1,43.7 290.1,7.3 	"></polygon>
	<path d="M173.6,101.4V57.8l10.2,10.6v0l31.5,33v-33v-7.3v-0.9l39.4,41.2V1.4h-6.4v84.8l-33-34.6v-0.9V30.2V1.4h-6.4
		v28.8v13.9V45L167.2,1.4v41.2l-0.6-0.7L127.8,1.4v100.1h6.4V16.6l25.9,27.1l7.1,7.4v50.3H173.6z M173.6,16.6l35.3,37v0.9v14v17.8
		L186,62.3l-0.4-0.5l-11.4-11.9l-0.6-0.7V16.6z"></path>
</g>
</svg>