<svg xmlns="http://www.w3.org/2000/svg" viewBox="0 0 376.25 117.37"><defs><style>.cls-1{fill:#cf037f;}.cls-2{fill:#56017d;}.cls-3{fill:#60017d;}.cls-4{fill:#da037f;}</style></defs><title>Ресурс 1</title><g id="Слой_2" data-name="Слой 2"><g id="Слой_1-2" data-name="Слой 1"><path class="cls-1" d="M60.71,8.87a8.87,8.87,0,1,0-16.9,3.75,51.39,51.39,0,0,0-15.93,5.2,37,37,0,0,1,6.75,5.37,43.8,43.8,0,0,1,39.81,2.92l4.47-6.34a51.38,51.38,0,0,0-19.05-7.13A8.81,8.81,0,0,0,60.71,8.87Z"/><path class="cls-1" d="M18.25,59.8H7.91A43.61,43.61,0,0,1,12.2,44.42a38.83,38.83,0,0,1-3.82-8.9A51.36,51.36,0,0,0,0,63.67a3.87,3.87,0,0,0,3.87,3.87H18.25a3.87,3.87,0,0,0,0-7.74Z"/><path class="cls-1" d="M94,34c-1.65,3.26-3,5.88-4.07,8A43.62,43.62,0,0,1,95.45,59.8H85.12a3.87,3.87,0,0,0,0,7.74H99.49a3.87,3.87,0,0,0,3.87-3.87A51.38,51.38,0,0,0,94,34Z"/><path class="cls-2" d="M99.87,74.12a3.87,3.87,0,0,0-3-1.42H74a3.87,3.87,0,1,0,0,7.75H91.87a42.18,42.18,0,0,1-80.26,0H31.42a3.87,3.87,0,0,0,0-7.75H6.6a3.87,3.87,0,0,0-3.8,4.63,49.49,49.49,0,0,0,9,20L9.22,109.81a5,5,0,0,0,7.25,5.49l9.69-5a49.65,49.65,0,0,0,51,.11l9.48,4.91a5,5,0,0,0,7.25-5.49L91.38,97.74a49.49,49.49,0,0,0,9.29-20.4A3.87,3.87,0,0,0,99.87,74.12Z"/><path class="cls-2" d="M95.6,6.16A3.53,3.53,0,0,1,98.47,8c.69,1.14,1.53,3.64-.53,7.53-1.33,2.51-4.11,8-7,13.81-5.12,10.13-8.54,16.85-9.28,18-.57.85-1.8,1.87-4.46,1.87a12.81,12.81,0,0,1-2.54-.27l-1.21-.2c-2.74,3.51-10.92,18.72-16,28.68a8.5,8.5,0,0,1-.76,1.14,5.59,5.59,0,0,1-1.65,1.66,6,6,0,0,1-1.24.63l-.09,0-.29.09a4.85,4.85,0,0,1-1.46.23h0A5.56,5.56,0,0,1,49,80.38a5.32,5.32,0,0,1-2-2,10.18,10.18,0,0,1-1-1.41C40,64.74,32.33,51,29.94,49.37a9.59,9.59,0,0,1-2.84.44c-3.67,0-7-2.2-9.91-6.53C12.58,36.38,9.36,24,14.82,20.36a5.86,5.86,0,0,1,3.32-.94c5.57,0,13.14,6.16,17,11.87,4.92,7.36,2.57,12.11.44,14.47.37,2.48,8,12,16.13,21L93.8,7.08a2.13,2.13,0,0,1,1.8-.92"/><path class="cls-3" d="M131.25,82.58A3.2,3.2,0,0,1,131,83.9a3.36,3.36,0,0,1-.81,1.11,3.93,3.93,0,0,1-1.28.77,4.61,4.61,0,0,1-1.67.29A7.48,7.48,0,0,1,126,86a6.13,6.13,0,0,1-1.23-.33,3.5,3.5,0,0,1-1-.54,1,1,0,0,1-.39-.77.91.91,0,0,1,.32-.7,1.09,1.09,0,0,1,.75-.29,1.26,1.26,0,0,1,.52.12l.54.25a4.7,4.7,0,0,0,.64.26,2.72,2.72,0,0,0,.83.12,2,2,0,0,0,1.43-.45,1.45,1.45,0,0,0,.49-1.1,1.14,1.14,0,0,0-.2-.69,1.44,1.44,0,0,0-.53-.44,3,3,0,0,0-.76-.25,8.14,8.14,0,0,0-.91-.11l-.46,0a1.16,1.16,0,0,1-.41-.13.7.7,0,0,1-.29-.3,1.24,1.24,0,0,1-.11-.57,1.14,1.14,0,0,1,.11-.54.75.75,0,0,1,.27-.3A.93.93,0,0,1,126,79l.39,0a4.27,4.27,0,0,0,.83-.12,2.59,2.59,0,0,0,.73-.29,1.62,1.62,0,0,0,.52-.47,1.14,1.14,0,0,0,.2-.68,1.38,1.38,0,0,0-.08-.46,1.22,1.22,0,0,0-.26-.42,1.32,1.32,0,0,0-.48-.3,2.06,2.06,0,0,0-.74-.11,3,3,0,0,0-1.27.26,6.15,6.15,0,0,0-.57.3,1.19,1.19,0,0,1-.64.17,1.11,1.11,0,0,1-.72-.27.85.85,0,0,1-.33-.68,1,1,0,0,1,.35-.74,3.1,3.1,0,0,1,.9-.56,5.76,5.76,0,0,1,1.19-.35,6.4,6.4,0,0,1,1.22-.13,4,4,0,0,1,1.61.3,3.55,3.55,0,0,1,1.15.77,3.16,3.16,0,0,1,.69,1,3.09,3.09,0,0,1,.23,1.16,2.25,2.25,0,0,1-.47,1.44,4.12,4.12,0,0,1-1.38,1.06,4.15,4.15,0,0,1,1.57,1A2.35,2.35,0,0,1,131.25,82.58Z"/><path class="cls-3" d="M136.76,76.4v2.14h1.4a5.83,5.83,0,0,1,1.73.24,3.69,3.69,0,0,1,1.33.71,3.11,3.11,0,0,1,.85,1.14,3.85,3.85,0,0,1,.3,1.57,4.51,4.51,0,0,1-.22,1.4,3.18,3.18,0,0,1-.72,1.2,3.5,3.5,0,0,1-1.3.83,5.62,5.62,0,0,1-2,.3h-2.42a1.28,1.28,0,0,1-.91-.36,1.1,1.1,0,0,1-.38-.83V75.44a1.09,1.09,0,0,1,.36-.78,1.2,1.2,0,0,1,.88-.35h4.82a1.13,1.13,0,0,1,.81.31,1,1,0,0,1,.33.74,1,1,0,0,1-.33.74,1.17,1.17,0,0,1-.81.3Zm0,4.24v3.2h1.4a2.7,2.7,0,0,0,.95-.14,1.54,1.54,0,0,0,.59-.37,1.18,1.18,0,0,0,.29-.52,2.29,2.29,0,0,0,.08-.59q0-1.58-1.9-1.58Z"/><path class="cls-3" d="M147.11,85.31a1.11,1.11,0,0,1-.46.57,1.2,1.2,0,0,1-.63.21,1.27,1.27,0,0,1-.83-.29.93.93,0,0,1-.36-.77s0-.1,0-.18a.47.47,0,0,1,0-.18l3.22-9.39a2.31,2.31,0,0,1,.45-.8,1.13,1.13,0,0,1,.88-.32,1.14,1.14,0,0,1,.88.31,2.4,2.4,0,0,1,.47.81L154,84.66a.48.48,0,0,1,0,.18c0,.08,0,.13,0,.18a1,1,0,0,1-.34.77,1.26,1.26,0,0,1-.85.29,1.19,1.19,0,0,1-.66-.21,1.12,1.12,0,0,1-.46-.56l-.58-1.67h-3.51Zm2.62-6.37a5.23,5.23,0,0,1-.18-.8c0-.29-.08-.56-.11-.82,0,.25-.07.52-.12.82a5.06,5.06,0,0,1-.18.8l-.87,2.82h2.31Z"/><path class="cls-3" d="M159.31,75.49a1.25,1.25,0,0,1,.4-.83,1.23,1.23,0,0,1,.89-.35h4.5a1.28,1.28,0,0,1,.91.35,1.1,1.1,0,0,1,.38.83V85a1.06,1.06,0,0,1-.36.73,1.15,1.15,0,0,1-.79.3,1.19,1.19,0,0,1-.82-.3,1,1,0,0,1-.33-.74V76.38h-2.57L161,82.93a6.72,6.72,0,0,1-.24,1.25,3.17,3.17,0,0,1-.48,1,2.13,2.13,0,0,1-.76.64,2.36,2.36,0,0,1-1.08.23l-.64,0a1.89,1.89,0,0,1-.56-.12.88.88,0,0,1-.4-.31,1.07,1.07,0,0,1-.15-.61,1,1,0,0,1,.34-.83,1.25,1.25,0,0,1,.77-.25l.17,0a.59.59,0,0,0,.19,0h.1c.25,0,.4-.33.45-1Z"/><path class="cls-3" d="M171.62,85.31a1.11,1.11,0,0,1-.46.57,1.2,1.2,0,0,1-.63.21,1.27,1.27,0,0,1-.83-.29.93.93,0,0,1-.35-.77s0-.1,0-.18a.46.46,0,0,1,0-.18l3.22-9.39a2.3,2.3,0,0,1,.45-.8,1.13,1.13,0,0,1,.88-.32,1.15,1.15,0,0,1,.88.31,2.4,2.4,0,0,1,.47.81l3.22,9.39a.49.49,0,0,1,0,.18c0,.08,0,.13,0,.18a1,1,0,0,1-.34.77,1.26,1.26,0,0,1-.85.29,1.19,1.19,0,0,1-.66-.21,1.13,1.13,0,0,1-.46-.56l-.58-1.67h-3.51Zm2.62-6.37a5.12,5.12,0,0,1-.18-.8c0-.29-.08-.56-.12-.82,0,.25-.07.52-.12.82a5.13,5.13,0,0,1-.18.8l-.87,2.82h2.31Z"/><path class="cls-3" d="M189.63,85a1,1,0,0,1-.34.75,1.19,1.19,0,0,1-1.62,0,1,1,0,0,1-.35-.75V81.16h-3.51V85a1,1,0,0,1-.34.75,1.2,1.2,0,0,1-1.63,0,1,1,0,0,1-.34-.75v-9.8a1,1,0,0,1,.34-.74,1.22,1.22,0,0,1,1.63,0,1,1,0,0,1,.34.74v3.84h3.51V75.21a1,1,0,0,1,.35-.74,1.2,1.2,0,0,1,1.62,0,1,1,0,0,1,.35.74Z"/><path class="cls-3" d="M195.22,81.74a2.9,2.9,0,0,0,.44,1.68,1.75,1.75,0,0,0,1.54.63,2.46,2.46,0,0,0,1.37-.39l.17-.1.3-.17a.87.87,0,0,1,.41-.08,1.08,1.08,0,0,1,.78.3.94.94,0,0,1,.31.69,1,1,0,0,1-.29.68,2.48,2.48,0,0,1-.77.56,4.85,4.85,0,0,1-1.09.38,5.8,5.8,0,0,1-1.27.14,5.25,5.25,0,0,1-1.88-.3,3.4,3.4,0,0,1-1.31-.88,3.54,3.54,0,0,1-.77-1.37,6,6,0,0,1-.25-1.77V78.48a5.94,5.94,0,0,1,.25-1.77,3.53,3.53,0,0,1,.77-1.37,3.42,3.42,0,0,1,1.31-.88,5.23,5.23,0,0,1,1.88-.31,5.74,5.74,0,0,1,1.27.14,4.9,4.9,0,0,1,1.09.38,2.54,2.54,0,0,1,.77.56,1,1,0,0,1,.29.68.94.94,0,0,1-.31.69,1.08,1.08,0,0,1-.78.3.88.88,0,0,1-.41-.07l-.3-.17-.17-.1a2.46,2.46,0,0,0-1.37-.39,1.76,1.76,0,0,0-1.54.62,2.88,2.88,0,0,0-.44,1.69Z"/><path class="cls-3" d="M207.56,86.08a4.8,4.8,0,0,1-1.87-.34,3.74,3.74,0,0,1-1.34-.92,3.91,3.91,0,0,1-.81-1.38,5.16,5.16,0,0,1-.27-1.7V78.48a5.65,5.65,0,0,1,.24-1.66,3.79,3.79,0,0,1,.75-1.38,3.55,3.55,0,0,1,1.33-.94,5.78,5.78,0,0,1,3.94,0,3.54,3.54,0,0,1,1.33.94,3.76,3.76,0,0,1,.75,1.38,5.65,5.65,0,0,1,.24,1.66v3.27a5.2,5.2,0,0,1-.27,1.7,3.91,3.91,0,0,1-.81,1.38,3.77,3.77,0,0,1-1.34.92A4.82,4.82,0,0,1,207.56,86.08Zm0-9.83a1.78,1.78,0,0,0-1.54.61,2.68,2.68,0,0,0-.45,1.62v3.27a2.58,2.58,0,0,0,.48,1.62,2.11,2.11,0,0,0,3,0,2.59,2.59,0,0,0,.48-1.62V78.48a2.69,2.69,0,0,0-.44-1.62A1.78,1.78,0,0,0,207.56,76.25Z"/><path class="cls-3" d="M216.57,85.93a1.27,1.27,0,0,1-.91-.36,1.11,1.11,0,0,1-.37-.83V75.49a1.09,1.09,0,0,1,.38-.85,1.32,1.32,0,0,1,.91-.34h2.79a4.52,4.52,0,0,1,1.63.27,3.36,3.36,0,0,1,1.16.73,3,3,0,0,1,.69,1,3.26,3.26,0,0,1,.23,1.21,2.06,2.06,0,0,1-.5,1.43,4,4,0,0,1-1.24.92,5.05,5.05,0,0,1,.75.37,2.87,2.87,0,0,1,.66.54,2.48,2.48,0,0,1,.46.73,2.45,2.45,0,0,1,.17,1,3.28,3.28,0,0,1-.28,1.35,3.24,3.24,0,0,1-.81,1.1,3.93,3.93,0,0,1-1.29.74,5.08,5.08,0,0,1-1.71.27Zm2.92-7.08a1.36,1.36,0,0,0,.44-.07,1.27,1.27,0,0,0,.41-.23,1.14,1.14,0,0,0,.31-.4,1.35,1.35,0,0,0,.11-.58,1.39,1.39,0,0,0-.26-.83,1,1,0,0,0-.9-.35h-2v2.47ZM217.59,81v2.87h1.85a1.74,1.74,0,0,0,1.23-.38,1.34,1.34,0,0,0,.4-1,1.37,1.37,0,0,0-.44-1.09,1.61,1.61,0,0,0-1.1-.38Z"/><path class="cls-3" d="M228.13,85.31a1.11,1.11,0,0,1-.46.57,1.2,1.2,0,0,1-.63.21,1.27,1.27,0,0,1-.83-.29.93.93,0,0,1-.35-.77s0-.1,0-.18a.49.49,0,0,1,0-.18l3.22-9.39a2.33,2.33,0,0,1,.45-.8,1.13,1.13,0,0,1,.88-.32,1.14,1.14,0,0,1,.88.31,2.38,2.38,0,0,1,.47.81L235,84.66a.51.51,0,0,1,0,.18c0,.08,0,.13,0,.18a1,1,0,0,1-.34.77,1.25,1.25,0,0,1-.85.29,1.18,1.18,0,0,1-.66-.21,1.13,1.13,0,0,1-.46-.56l-.58-1.67h-3.51Zm2.62-6.37a5.17,5.17,0,0,1-.18-.8c0-.29-.08-.56-.11-.82,0,.25-.07.52-.12.82a5.18,5.18,0,0,1-.18.8l-.87,2.82h2.31Z"/><path class="cls-3" d="M246.15,85a1,1,0,0,1-.34.75,1.14,1.14,0,0,1-.82.32,1.15,1.15,0,0,1-.81-.32,1,1,0,0,1-.35-.75V81.16h-3.51V85a1,1,0,0,1-.34.75,1.2,1.2,0,0,1-1.63,0A1,1,0,0,1,238,85v-9.8a1,1,0,0,1,.34-.74,1.22,1.22,0,0,1,1.63,0,1,1,0,0,1,.34.74v3.84h3.51V75.21a1,1,0,0,1,.35-.74,1.2,1.2,0,0,1,1.62,0,1,1,0,0,1,.35.74Z"/><path class="cls-3" d="M257,84.86a1,1,0,0,1-.34.76,1.16,1.16,0,0,1-.82.31h-4.37a2.17,2.17,0,0,1-1.07-.25,1,1,0,0,1-.46-.92V75.47a1.12,1.12,0,0,1,.36-.8,1.21,1.21,0,0,1,.91-.37h4.47a1.14,1.14,0,0,1,.82.32,1,1,0,0,1,.34.75.92.92,0,0,1-.34.73,1.22,1.22,0,0,1-.82.29H252.2v2.65h3.12a1.2,1.2,0,0,1,.79.3.93.93,0,0,1,.35.74,1,1,0,0,1-.33.75,1.16,1.16,0,0,1-.81.3H252.2v2.69h3.59a1.21,1.21,0,0,1,.81.3A.92.92,0,0,1,257,84.86Z"/><path class="cls-3" d="M268,85.42v0a1.83,1.83,0,0,1-.38.46,1,1,0,0,1-.67.22,1.1,1.1,0,0,1-.78-.33,1,1,0,0,1-.34-.74,1,1,0,0,1,0-.3.93.93,0,0,1,.11-.26l2.86-4.55-2.62-4.14a1.24,1.24,0,0,1-.13-.56,1,1,0,0,1,.33-.72,1.08,1.08,0,0,1,.78-.32,1,1,0,0,1,.67.23,2.07,2.07,0,0,1,.47.53L270.15,78,272,74.91a3.45,3.45,0,0,1,.45-.49,1,1,0,0,1,.71-.27,1.07,1.07,0,0,1,.76.31,1,1,0,0,1,.33.74,1,1,0,0,1,0,.27,1.94,1.94,0,0,1-.11.27l-2.61,4.14,2.85,4.55a.93.93,0,0,1,.12.26,1.08,1.08,0,0,1,0,.3,1,1,0,0,1-.34.74,1.08,1.08,0,0,1-.77.33,1,1,0,0,1-.67-.21,2.07,2.07,0,0,1-.4-.45l-2.19-3.63Z"/><path class="cls-3" d="M278.89,85.31a1.1,1.1,0,0,1-.46.57,1.19,1.19,0,0,1-.63.21,1.27,1.27,0,0,1-.83-.29.93.93,0,0,1-.36-.77s0-.1,0-.18a.46.46,0,0,1,0-.18l3.22-9.39a2.31,2.31,0,0,1,.45-.8,1.13,1.13,0,0,1,.88-.32,1.14,1.14,0,0,1,.88.31,2.4,2.4,0,0,1,.47.81l3.22,9.39a.52.52,0,0,1,0,.18c0,.08,0,.13,0,.18a1,1,0,0,1-.34.77,1.25,1.25,0,0,1-.85.29,1.19,1.19,0,0,1-.66-.21,1.13,1.13,0,0,1-.46-.56L283,83.64h-3.51Zm2.62-6.37a5.13,5.13,0,0,1-.18-.8c0-.29-.08-.56-.12-.82,0,.25-.07.52-.11.82a5,5,0,0,1-.18.8L280,81.76h2.31Z"/><path class="cls-3" d="M291.08,82v3a1,1,0,0,1-.34.76,1.18,1.18,0,0,1-1.63,0,1,1,0,0,1-.35-.77v-9.5a1.1,1.1,0,0,1,.38-.83,1.28,1.28,0,0,1,.91-.35h2.43a5.33,5.33,0,0,1,2,.32,3.51,3.51,0,0,1,1.29.86,3.24,3.24,0,0,1,.72,1.23,4.74,4.74,0,0,1,.22,1.45,4.22,4.22,0,0,1-.3,1.63,3.15,3.15,0,0,1-.85,1.2,3.83,3.83,0,0,1-1.33.73,5.49,5.49,0,0,1-1.73.26Zm0-2.1h1.4a2.07,2.07,0,0,0,1.42-.42,1.65,1.65,0,0,0,.48-1.31,2.75,2.75,0,0,0-.08-.64,1.32,1.32,0,0,0-.29-.56,1.46,1.46,0,0,0-.59-.4,2.58,2.58,0,0,0-.95-.15h-1.4Z"/><path class="cls-3" d="M305.27,81.59a2.85,2.85,0,0,1-.85.3,4.9,4.9,0,0,1-.87.07,4,4,0,0,1-2.86-1,3.72,3.72,0,0,1-1-2.83V75.24a1,1,0,0,1,.34-.76,1.18,1.18,0,0,1,1.63,0,1,1,0,0,1,.35.77v2.9a1.78,1.78,0,0,0,.42,1.33,1.75,1.75,0,0,0,1.26.4,3.53,3.53,0,0,0,1.62-.41V75.24a1,1,0,0,1,.34-.76,1.13,1.13,0,0,1,.82-.33,1.16,1.16,0,0,1,.81.32,1,1,0,0,1,.34.77V85a1,1,0,0,1-.34.77,1.16,1.16,0,0,1-.81.32,1.14,1.14,0,0,1-.82-.33,1,1,0,0,1-.34-.76Z"/><path class="cls-3" d="M316.8,74.85a1,1,0,0,1,.43-.51,1.19,1.19,0,0,1,1.41.11.92.92,0,0,1,.36.75,1,1,0,0,1,0,.21.56.56,0,0,1-.06.17l-2.66,6.58q-.31.78-.65,1.48a5.38,5.38,0,0,1-.8,1.23,3.63,3.63,0,0,1-1.08.85,3.34,3.34,0,0,1-1.49.34,1.21,1.21,0,0,1-.83-.29.93.93,0,0,1-.33-.74,1,1,0,0,1,.29-.68,1.14,1.14,0,0,1,.8-.34,1.63,1.63,0,0,0,.87-.26,2.11,2.11,0,0,0,.6-.81l-3-7.39a.63.63,0,0,1-.06-.21,1.59,1.59,0,0,1,0-.17.91.91,0,0,1,.33-.72,1.19,1.19,0,0,1,.81-.29,1.15,1.15,0,0,1,.62.18,1,1,0,0,1,.42.51l1.44,3.56a6,6,0,0,1,.35,1.12c.08.39.18.77.29,1.16.11-.39.21-.76.29-1.14a8.29,8.29,0,0,1,.34-1.12Z"/><path class="cls-3" d="M323.22,85.93a1.27,1.27,0,0,1-.91-.36,1.11,1.11,0,0,1-.37-.83V75.49a1.09,1.09,0,0,1,.38-.85,1.32,1.32,0,0,1,.91-.34H326a4.53,4.53,0,0,1,1.63.27,3.36,3.36,0,0,1,1.16.73,3,3,0,0,1,.69,1,3.26,3.26,0,0,1,.23,1.21,2.06,2.06,0,0,1-.5,1.43,3.92,3.92,0,0,1-1.24.92,5,5,0,0,1,.75.37,2.87,2.87,0,0,1,.66.54,2.45,2.45,0,0,1,.46.73,2.49,2.49,0,0,1,.17,1,3.28,3.28,0,0,1-.28,1.35,3.23,3.23,0,0,1-.81,1.1,4,4,0,0,1-1.29.74,5.07,5.07,0,0,1-1.71.27Zm2.92-7.08a1.37,1.37,0,0,0,.44-.07,1.26,1.26,0,0,0,.41-.23,1.17,1.17,0,0,0,.31-.4,1.36,1.36,0,0,0,.11-.58,1.39,1.39,0,0,0-.25-.83,1,1,0,0,0-.9-.35h-2v2.47ZM324.24,81v2.87h1.85a1.74,1.74,0,0,0,1.23-.38,1.34,1.34,0,0,0,.4-1,1.37,1.37,0,0,0-.44-1.09,1.61,1.61,0,0,0-1.1-.38Z"/><path class="cls-3" d="M334.78,85.31a1.11,1.11,0,0,1-.46.57,1.19,1.19,0,0,1-.63.21,1.27,1.27,0,0,1-.83-.29.94.94,0,0,1-.36-.77s0-.1,0-.18a.46.46,0,0,1,0-.18l3.22-9.39a2.29,2.29,0,0,1,.45-.8,1.13,1.13,0,0,1,.88-.32,1.15,1.15,0,0,1,.88.31,2.44,2.44,0,0,1,.47.81l3.22,9.39a.48.48,0,0,1,0,.18c0,.08,0,.13,0,.18a1,1,0,0,1-.34.77,1.26,1.26,0,0,1-.85.29,1.19,1.19,0,0,1-.66-.21,1.13,1.13,0,0,1-.46-.56l-.58-1.67h-3.51Zm2.62-6.37a4.91,4.91,0,0,1-.18-.8c0-.29-.08-.56-.11-.82,0,.25-.07.52-.12.82a5,5,0,0,1-.18.8l-.87,2.82h2.31Z"/><path class="cls-3" d="M352.79,85a1,1,0,0,1-.34.75,1.19,1.19,0,0,1-1.62,0,1,1,0,0,1-.35-.75V81.16H347V85a1,1,0,0,1-.34.75,1.2,1.2,0,0,1-1.63,0,1,1,0,0,1-.34-.75v-9.8a1,1,0,0,1,.34-.74,1.22,1.22,0,0,1,1.63,0,1,1,0,0,1,.34.74v3.84h3.52V75.21a1,1,0,0,1,.35-.74,1.2,1.2,0,0,1,1.62,0,1,1,0,0,1,.35.74Z"/><path class="cls-3" d="M364.67,85a1,1,0,0,1-.34.75,1.14,1.14,0,0,1-.82.32,1.15,1.15,0,0,1-.81-.32,1,1,0,0,1-.35-.75V81.16h-3.51V85a1,1,0,0,1-.34.75,1.2,1.2,0,0,1-1.63,0,1,1,0,0,1-.34-.75v-9.8a1,1,0,0,1,.34-.74,1.22,1.22,0,0,1,1.63,0,1,1,0,0,1,.34.74v3.84h3.51V75.21a1,1,0,0,1,.35-.74,1.2,1.2,0,0,1,1.62,0,1,1,0,0,1,.35.74Z"/><path class="cls-3" d="M368.37,77.8a4.08,4.08,0,0,1,.21-1.27,3,3,0,0,1,.68-1.12,3.41,3.41,0,0,1,1.26-.8,5.4,5.4,0,0,1,1.95-.31H375a1.23,1.23,0,0,1,.88.35,1.11,1.11,0,0,1,.37.83V85a1,1,0,0,1-.33.77,1.12,1.12,0,0,1-.81.32,1.17,1.17,0,0,1-.83-.33,1,1,0,0,1-.35-.76V81.21h-.81l-2.75,4.34a1.09,1.09,0,0,1-1,.51A1,1,0,0,1,369,86a1.8,1.8,0,0,1-.4-.21,1.15,1.15,0,0,1-.31-.32.73.73,0,0,1-.12-.4,1.49,1.49,0,0,1,0-.33,1.15,1.15,0,0,1,.15-.35l2.24-3.4A3.31,3.31,0,0,1,369,79.83,3.26,3.26,0,0,1,368.37,77.8Zm2.31,0a1.23,1.23,0,0,0,.4,1,1.77,1.77,0,0,0,1.18.35h1.68V76.4h-1.59a2.43,2.43,0,0,0-.84.12,1.31,1.31,0,0,0-.51.32,1.16,1.16,0,0,0-.25.45A1.74,1.74,0,0,0,370.68,77.8Z"/><path class="cls-4" d="M146.93,40.6a11.57,11.57,0,0,1,1.14,5.16,11.41,11.41,0,0,1-1.14,5.13A10.2,10.2,0,0,1,144,54.54a14.16,14.16,0,0,1-3.74,2.08,11,11,0,0,1-3.8.72H131v4.94a12.57,12.57,0,0,1-.07,1.51,3.48,3.48,0,0,1-.41,1.16,1.92,1.92,0,0,1-1.18.92,7.65,7.65,0,0,1-2.23.26,6.77,6.77,0,0,1-1.88-.22,3.39,3.39,0,0,1-1.14-.52,1.83,1.83,0,0,1-.59-.9,3.92,3.92,0,0,1-.22-1c0-.28,0-.69,0-1.25V38a12.72,12.72,0,0,1,.07-1.51,3.49,3.49,0,0,1,.41-1.16,1.92,1.92,0,0,1,1.18-.92,7.63,7.63,0,0,1,2.23-.26h9.35a10.86,10.86,0,0,1,3.78.72A14.38,14.38,0,0,1,144,36.93,10.16,10.16,0,0,1,146.93,40.6Zm-6.56,5.11a3.41,3.41,0,0,0-1.27-2.86,4.24,4.24,0,0,0-2.62-1H131v7.74h5.51a4.25,4.25,0,0,0,2.58-1A3.44,3.44,0,0,0,140.38,45.72Z"/><path class="cls-4" d="M175.43,60.75a6.9,6.9,0,0,1,.66,2.28q0,1.66-2.71,2.8a6.14,6.14,0,0,1-2.36.61,2.07,2.07,0,0,1-1.29-.42,2.8,2.8,0,0,1-.79-.85q-.24-.44-.63-1.36-1-2.19-2.8-6.56l-1.35.09h-5.51v4.94a12.49,12.49,0,0,1-.07,1.51,3.48,3.48,0,0,1-.42,1.16,1.91,1.91,0,0,1-1.18.92,7.65,7.65,0,0,1-2.23.26,6.77,6.77,0,0,1-1.88-.22,3.4,3.4,0,0,1-1.14-.52,1.84,1.84,0,0,1-.59-.9,3.91,3.91,0,0,1-.22-1c0-.28,0-.69,0-1.25V38a13,13,0,0,1,.06-1.51,3.47,3.47,0,0,1,.42-1.16,1.92,1.92,0,0,1,1.18-.92,7.64,7.64,0,0,1,2.23-.26h9.44a10.86,10.86,0,0,1,3.78.72,14,14,0,0,1,3.69,2.08,10.26,10.26,0,0,1,2.88,3.67,11.57,11.57,0,0,1,1.14,5.16,10.85,10.85,0,0,1-3.28,8.13Q173.42,56.21,175.43,60.75ZM158.65,49.61h5.6a4.2,4.2,0,0,0,2.54-1A3.44,3.44,0,0,0,168,45.72a3.41,3.41,0,0,0-1.27-2.86,4.24,4.24,0,0,0-2.62-1h-5.51Z"/><path class="cls-4" d="M193.53,33.74a15.52,15.52,0,0,1,11.23,4.68,15.9,15.9,0,0,1,4.76,11.85A16.37,16.37,0,0,1,205,61.82a14.55,14.55,0,0,1-11.06,4.87,15.29,15.29,0,0,1-11.43-4.81,15.89,15.89,0,0,1-4.66-11.45,17.6,17.6,0,0,1,1.31-6.8,15.75,15.75,0,0,1,3.5-5.31,16.36,16.36,0,0,1,5-3.36A14.64,14.64,0,0,1,193.53,33.74ZM193.66,59a8,8,0,0,0,5.64-2.36,8.36,8.36,0,0,0,2.49-6.38,8.37,8.37,0,0,0-2.51-6.34,7.71,7.71,0,0,0-11.21,0,8.48,8.48,0,0,0-2.49,6.36,8.33,8.33,0,0,0,2.51,6.27A7.86,7.86,0,0,0,193.66,59Z"/><path class="cls-3" d="M301.82,40.6A11.55,11.55,0,0,1,303,45.76a11.39,11.39,0,0,1-1.14,5.13,10.19,10.19,0,0,1-2.91,3.65,14.12,14.12,0,0,1-3.74,2.08,11,11,0,0,1-3.8.72h-5.46v4.94a12.66,12.66,0,0,1-.07,1.51,3.48,3.48,0,0,1-.42,1.16,1.91,1.91,0,0,1-1.18.92,7.65,7.65,0,0,1-2.23.26,6.76,6.76,0,0,1-1.88-.22,3.38,3.38,0,0,1-1.14-.52,1.82,1.82,0,0,1-.59-.9,4,4,0,0,1-.22-1c0-.28,0-.69,0-1.25V38a12.46,12.46,0,0,1,.07-1.51,3.54,3.54,0,0,1,.41-1.16,1.92,1.92,0,0,1,1.18-.92,7.62,7.62,0,0,1,2.23-.26h9.35a10.87,10.87,0,0,1,3.78.72,14.34,14.34,0,0,1,3.71,2.08A10.15,10.15,0,0,1,301.82,40.6Zm-6.56,5.11A3.41,3.41,0,0,0,294,42.85a4.23,4.23,0,0,0-2.62-1h-5.46v7.74h5.51a4.24,4.24,0,0,0,2.58-1A3.44,3.44,0,0,0,295.26,45.72Z"/><path class="cls-3" d="M259.14,33.74a15.51,15.51,0,0,1,11.23,4.68,15.89,15.89,0,0,1,4.76,11.85,16.38,16.38,0,0,1-4.55,11.56,14.56,14.56,0,0,1-11.06,4.87,15.28,15.28,0,0,1-11.43-4.81,15.89,15.89,0,0,1-4.65-11.45,17.6,17.6,0,0,1,1.31-6.8,15.76,15.76,0,0,1,3.5-5.31,16.39,16.39,0,0,1,5-3.36A14.64,14.64,0,0,1,259.14,33.74ZM259.27,59a8,8,0,0,0,5.64-2.36,8.37,8.37,0,0,0,2.49-6.38,8.37,8.37,0,0,0-2.51-6.34,7.72,7.72,0,0,0-11.21,0,8.49,8.49,0,0,0-2.49,6.36,8.33,8.33,0,0,0,2.51,6.27A7.85,7.85,0,0,0,259.27,59Z"/><path class="cls-3" d="M339.84,38a12.46,12.46,0,0,1,.07-1.51,3.48,3.48,0,0,1,.41-1.16,1.91,1.91,0,0,1,1.18-.92,7.65,7.65,0,0,1,2.23-.26,6.82,6.82,0,0,1,1.88.22,3.41,3.41,0,0,1,1.14.52,1.81,1.81,0,0,1,.59.9,4,4,0,0,1,.22,1c0,.28,0,.69,0,1.25v24.3a12.73,12.73,0,0,1-.06,1.53A3.53,3.53,0,0,1,347.1,65a1.92,1.92,0,0,1-1.18.92,7.62,7.62,0,0,1-2.23.26,6.83,6.83,0,0,1-1.88-.22,3.48,3.48,0,0,1-1.14-.53,1.82,1.82,0,0,1-.59-.89,3.77,3.77,0,0,1-.22-1c0-.28,0-.69,0-1.25Z"/><path class="cls-3" d="M354.7,53.89a10.86,10.86,0,0,1-3.28-8.13,11.58,11.58,0,0,1,1.14-5.16,10.28,10.28,0,0,1,2.88-3.67,14,14,0,0,1,3.69-2.08,10.86,10.86,0,0,1,3.78-.72h9.44a7.62,7.62,0,0,1,2.23.26,1.92,1.92,0,0,1,1.18.92,3.49,3.49,0,0,1,.42,1.16,13.25,13.25,0,0,1,.06,1.51V62.24c0,.55,0,1,0,1.25a3.9,3.9,0,0,1-.22,1,1.83,1.83,0,0,1-.59.9,3.41,3.41,0,0,1-1.14.52,6.76,6.76,0,0,1-1.88.22,7.65,7.65,0,0,1-2.23-.26,1.91,1.91,0,0,1-1.18-.92,3.48,3.48,0,0,1-.42-1.16,12.65,12.65,0,0,1-.07-1.51V57.34H363l-1.35-.09q-1.84,4.37-2.8,6.56c-.26.61-.47,1.06-.64,1.36a2.76,2.76,0,0,1-.79.85,2.07,2.07,0,0,1-1.29.42,6.14,6.14,0,0,1-2.36-.61q-2.71-1.14-2.71-2.8a6.93,6.93,0,0,1,.66-2.28Q353.74,56.21,354.7,53.89Zm13.81-12H363a4.24,4.24,0,0,0-2.62,1,3.41,3.41,0,0,0-1.27,2.86,3.44,3.44,0,0,0,1.27,2.93,4.19,4.19,0,0,0,2.54,1h5.59Z"/><path class="cls-3" d="M335.75,60.14a1.92,1.92,0,0,0-.92-1.18,3.52,3.52,0,0,0-1.14-.41,12.37,12.37,0,0,0-1.53-.07h-1V38.11q0-.83,0-1.25a4,4,0,0,0-.22-1,1.81,1.81,0,0,0-.59-.89,3.45,3.45,0,0,0-1.14-.52,6.69,6.69,0,0,0-1.88-.22,7.64,7.64,0,0,0-2.23.26,1.93,1.93,0,0,0-1.18.92,3.56,3.56,0,0,0-.41,1.16,12.46,12.46,0,0,0-.07,1.51V58.48h-5.46a4.24,4.24,0,0,1-2.62-1A3.4,3.4,0,0,1,314,54.63h0V38.11q0-.83,0-1.25a3.91,3.91,0,0,0-.22-1,1.83,1.83,0,0,0-.59-.89,3.47,3.47,0,0,0-1.14-.52,6.69,6.69,0,0,0-1.88-.22,7.65,7.65,0,0,0-2.23.26,1.92,1.92,0,0,0-1.18.92,3.5,3.5,0,0,0-.42,1.16,12.67,12.67,0,0,0-.07,1.51V54.59a11.54,11.54,0,0,0,1.14,5.16,10.14,10.14,0,0,0,2.91,3.67,14.22,14.22,0,0,0,3.71,2.08,10.87,10.87,0,0,0,3.78.72h14.23l1.25,0a3.92,3.92,0,0,0,1-.22,1.83,1.83,0,0,0,.9-.59,3.47,3.47,0,0,0,.52-1.14,6.69,6.69,0,0,0,.22-1.88A7.6,7.6,0,0,0,335.75,60.14Z"/><path class="cls-3" d="M236.14,34.66a7.63,7.63,0,0,1,2.23.26,1.92,1.92,0,0,1,1.18.92A3.56,3.56,0,0,1,240,37,12.51,12.51,0,0,1,240,38.5V62.76c0,.55,0,1,0,1.24a4,4,0,0,1-.22,1,1.8,1.8,0,0,1-.59.89,3.42,3.42,0,0,1-1.14.53,6.73,6.73,0,0,1-1.88.22,7.61,7.61,0,0,1-2.23-.26,1.92,1.92,0,0,1-1.18-.92,3.51,3.51,0,0,1-.42-1.16,12.42,12.42,0,0,1-.07-1.51V42.39H221.77V62.81a12.5,12.5,0,0,1-.07,1.51,3.51,3.51,0,0,1-.42,1.16,1.92,1.92,0,0,1-1.18.92,7.61,7.61,0,0,1-2.23.26,6.73,6.73,0,0,1-1.88-.22,3.42,3.42,0,0,1-1.14-.53,1.8,1.8,0,0,1-.59-.89,4,4,0,0,1-.22-1c0-.28,0-.69,0-1.24V38.5A12.49,12.49,0,0,1,214.1,37a3.57,3.57,0,0,1,.41-1.16,1.93,1.93,0,0,1,1.18-.92,7.64,7.64,0,0,1,2.23-.26Z"/></g></g></svg>